<?xml version="1.0" encoding="UTF-8" standalone="no"?><svg xmlns="http://www.w3.org/2000/svg" xmlns:xlink="http://www.w3.org/1999/xlink" contentScriptType="application/ecmascript" contentStyleType="text/css" height="129px" preserveAspectRatio="none" style="width:1124px;height:129px;" version="1.1" viewBox="0 0 1124 129" width="1124px" zoomAndPan="magnify"><defs><filter height="300%" id="f1p71doit0yir" width="300%" x="-1" y="-1"><feGaussianBlur result="blurOut" stdDeviation="2.0"/><feColorMatrix in="blurOut" result="blurOut2" type="matrix" values="0 0 0 0 0 0 0 0 0 0 0 0 0 0 0 0 0 0 .4 0"/><feOffset dx="4.0" dy="4.0" in="blurOut2" result="blurOut3"/><feBlend in="SourceGraphic" in2="blurOut3" mode="normal"/></filter></defs><g><line style="stroke: #A80036; stroke-width: 1.0; stroke-dasharray: 5.0,5.0;" x1="45" x2="45" y1="52.6094" y2="72.6094"/><line style="stroke: #A80036; stroke-width: 1.0; stroke-dasharray: 5.0,5.0;" x1="132" x2="132" y1="52.6094" y2="72.6094"/><line style="stroke: #A80036; stroke-width: 1.0; stroke-dasharray: 5.0,5.0;" x1="219" x2="219" y1="52.6094" y2="72.6094"/><line style="stroke: #A80036; stroke-width: 1.0; stroke-dasharray: 5.0,5.0;" x1="320" x2="320" y1="52.6094" y2="72.6094"/><line style="stroke: #A80036; stroke-width: 1.0; stroke-dasharray: 5.0,5.0;" x1="426" x2="426" y1="52.6094" y2="72.6094"/><line style="stroke: #A80036; stroke-width: 1.0; stroke-dasharray: 5.0,5.0;" x1="526" x2="526" y1="52.6094" y2="72.6094"/><line style="stroke: #A80036; stroke-width: 1.0; stroke-dasharray: 5.0,5.0;" x1="626" x2="626" y1="52.6094" y2="72.6094"/><line style="stroke: #A80036; stroke-width: 1.0; stroke-dasharray: 5.0,5.0;" x1="697" x2="697" y1="52.6094" y2="72.6094"/><line style="stroke: #A80036; stroke-width: 1.0; stroke-dasharray: 5.0,5.0;" x1="788" x2="788" y1="52.6094" y2="72.6094"/><line style="stroke: #A80036; stroke-width: 1.0; stroke-dasharray: 5.0,5.0;" x1="931" x2="931" y1="52.6094" y2="72.6094"/><line style="stroke: #A80036; stroke-width: 1.0; stroke-dasharray: 5.0,5.0;" x1="1065" x2="1065" y1="52.6094" y2="72.6094"/><text fill="#000000" font-family="sans-serif" font-size="14" lengthAdjust="spacingAndGlyphs" textLength="69" x="8" y="49.5332">RouteInput</text><path d="M25,7 L25,31 M25,19 L42,19 " fill="none" filter="url(#f1p71doit0yir)" style="stroke: #A80036; stroke-width: 2.0;"/><ellipse cx="54" cy="19" fill="#FEFECE" filter="url(#f1p71doit0yir)" rx="12" ry="12" style="stroke: #A80036; stroke-width: 2.0;"/><text fill="#000000" font-family="sans-serif" font-size="14" lengthAdjust="spacingAndGlyphs" textLength="69" x="8" y="86.1426">RouteInput</text><path d="M25,93.2188 L25,117.2188 M25,105.2188 L42,105.2188 " fill="none" filter="url(#f1p71doit0yir)" style="stroke: #A80036; stroke-width: 2.0;"/><ellipse cx="54" cy="105.2188" fill="#FEFECE" filter="url(#f1p71doit0yir)" rx="12" ry="12" style="stroke: #A80036; stroke-width: 2.0;"/><text fill="#000000" font-family="sans-serif" font-size="14" lengthAdjust="spacingAndGlyphs" textLength="73" x="93" y="49.5332">MapDisplay</text><path d="M112,7 L112,31 M112,19 L129,19 " fill="none" filter="url(#f1p71doit0yir)" style="stroke: #A80036; stroke-width: 2.0;"/><ellipse cx="141" cy="19" fill="#FEFECE" filter="url(#f1p71doit0yir)" rx="12" ry="12" style="stroke: #A80036; stroke-width: 2.0;"/><text fill="#000000" font-family="sans-serif" font-size="14" lengthAdjust="spacingAndGlyphs" textLength="73" x="93" y="86.1426">MapDisplay</text><path d="M112,93.2188 L112,117.2188 M112,105.2188 L129,105.2188 " fill="none" filter="url(#f1p71doit0yir)" style="stroke: #A80036; stroke-width: 2.0;"/><ellipse cx="141" cy="105.2188" fill="#FEFECE" filter="url(#f1p71doit0yir)" rx="12" ry="12" style="stroke: #A80036; stroke-width: 2.0;"/><text fill="#000000" font-family="sans-serif" font-size="14" lengthAdjust="spacingAndGlyphs" textLength="68" x="182" y="49.5332">ListDisplay</text><path d="M198.5,7 L198.5,31 M198.5,19 L215.5,19 " fill="none" filter="url(#f1p71doit0yir)" style="stroke: #A80036; stroke-width: 2.0;"/><ellipse cx="227.5" cy="19" fill="#FEFECE" filter="url(#f1p71doit0yir)" rx="12" ry="12" style="stroke: #A80036; stroke-width: 2.0;"/><text fill="#000000" font-family="sans-serif" font-size="14" lengthAdjust="spacingAndGlyphs" textLength="68" x="182" y="86.1426">ListDisplay</text><path d="M198.5,93.2188 L198.5,117.2188 M198.5,105.2188 L215.5,105.2188 " fill="none" filter="url(#f1p71doit0yir)" style="stroke: #A80036; stroke-width: 2.0;"/><ellipse cx="227.5" cy="105.2188" fill="#FEFECE" filter="url(#f1p71doit0yir)" rx="12" ry="12" style="stroke: #A80036; stroke-width: 2.0;"/><text fill="#000000" font-family="sans-serif" font-size="14" lengthAdjust="spacingAndGlyphs" textLength="103" x="266" y="49.5332">RouteGenerator</text><ellipse cx="320.5" cy="19" fill="#FEFECE" filter="url(#f1p71doit0yir)" rx="12" ry="12" style="stroke: #A80036; stroke-width: 2.0;"/><polygon fill="#A80036" points="316.5,7,322.5,2,320.5,7,322.5,12,316.5,7" style="stroke: #A80036; stroke-width: 1.0;"/><text fill="#000000" font-family="sans-serif" font-size="14" lengthAdjust="spacingAndGlyphs" textLength="103" x="266" y="86.1426">RouteGenerator</text><ellipse cx="320.5" cy="105.2188" fill="#FEFECE" filter="url(#f1p71doit0yir)" rx="12" ry="12" style="stroke: #A80036; stroke-width: 2.0;"/><polygon fill="#A80036" points="316.5,93.2188,322.5,88.2188,320.5,93.2188,322.5,98.2188,316.5,93.2188" style="stroke: #A80036; stroke-width: 1.0;"/><text fill="#000000" font-family="sans-serif" font-size="14" lengthAdjust="spacingAndGlyphs" textLength="77" x="385" y="49.5332">GetLocation</text><ellipse cx="426.5" cy="19" fill="#FEFECE" filter="url(#f1p71doit0yir)" rx="12" ry="12" style="stroke: #A80036; stroke-width: 2.0;"/><polygon fill="#A80036" points="422.5,7,428.5,2,426.5,7,428.5,12,422.5,7" style="stroke: #A80036; stroke-width: 1.0;"/><text fill="#000000" font-family="sans-serif" font-size="14" lengthAdjust="spacingAndGlyphs" textLength="77" x="385" y="86.1426">GetLocation</text><ellipse cx="426.5" cy="105.2188" fill="#FEFECE" filter="url(#f1p71doit0yir)" rx="12" ry="12" style="stroke: #A80036; stroke-width: 2.0;"/><polygon fill="#A80036" points="422.5,93.2188,428.5,88.2188,426.5,93.2188,428.5,98.2188,422.5,93.2188" style="stroke: #A80036; stroke-width: 1.0;"/><text fill="#000000" font-family="sans-serif" font-size="14" lengthAdjust="spacingAndGlyphs" textLength="91" x="478" y="49.5332">GetNearbyInfo</text><ellipse cx="526.5" cy="19" fill="#FEFECE" filter="url(#f1p71doit0yir)" rx="12" ry="12" style="stroke: #A80036; stroke-width: 2.0;"/><polygon fill="#A80036" points="522.5,7,528.5,2,526.5,7,528.5,12,522.5,7" style="stroke: #A80036; stroke-width: 1.0;"/><text fill="#000000" font-family="sans-serif" font-size="14" lengthAdjust="spacingAndGlyphs" textLength="91" x="478" y="86.1426">GetNearbyInfo</text><ellipse cx="526.5" cy="105.2188" fill="#FEFECE" filter="url(#f1p71doit0yir)" rx="12" ry="12" style="stroke: #A80036; stroke-width: 2.0;"/><polygon fill="#A80036" points="522.5,93.2188,528.5,88.2188,526.5,93.2188,528.5,98.2188,522.5,93.2188" style="stroke: #A80036; stroke-width: 1.0;"/><text fill="#000000" font-family="sans-serif" font-size="14" lengthAdjust="spacingAndGlyphs" textLength="76" x="585" y="49.5332">Notifications</text><ellipse cx="626" cy="19" fill="#FEFECE" filter="url(#f1p71doit0yir)" rx="12" ry="12" style="stroke: #A80036; stroke-width: 2.0;"/><polygon fill="#A80036" points="622,7,628,2,626,7,628,12,622,7" style="stroke: #A80036; stroke-width: 1.0;"/><text fill="#000000" font-family="sans-serif" font-size="14" lengthAdjust="spacingAndGlyphs" textLength="76" x="585" y="86.1426">Notifications</text><ellipse cx="626" cy="105.2188" fill="#FEFECE" filter="url(#f1p71doit0yir)" rx="12" ry="12" style="stroke: #A80036; stroke-width: 2.0;"/><polygon fill="#A80036" points="622,93.2188,628,88.2188,626,93.2188,628,98.2188,622,93.2188" style="stroke: #A80036; stroke-width: 1.0;"/><text fill="#000000" font-family="sans-serif" font-size="14" lengthAdjust="spacingAndGlyphs" textLength="35" x="677" y="49.5332">Login</text><ellipse cx="697.5" cy="19" fill="#FEFECE" filter="url(#f1p71doit0yir)" rx="12" ry="12" style="stroke: #A80036; stroke-width: 2.0;"/><polygon fill="#A80036" points="693.5,7,699.5,2,697.5,7,699.5,12,693.5,7" style="stroke: #A80036; stroke-width: 1.0;"/><text fill="#000000" font-family="sans-serif" font-size="14" lengthAdjust="spacingAndGlyphs" textLength="35" x="677" y="86.1426">Login</text><ellipse cx="697.5" cy="105.2188" fill="#FEFECE" filter="url(#f1p71doit0yir)" rx="12" ry="12" style="stroke: #A80036; stroke-width: 2.0;"/><polygon fill="#A80036" points="693.5,93.2188,699.5,88.2188,697.5,93.2188,699.5,98.2188,693.5,93.2188" style="stroke: #A80036; stroke-width: 1.0;"/><text fill="#000000" font-family="sans-serif" font-size="14" lengthAdjust="spacingAndGlyphs" textLength="115" x="728" y="49.5332">AdminOIFunctions</text><ellipse cx="788.5" cy="19" fill="#FEFECE" filter="url(#f1p71doit0yir)" rx="12" ry="12" style="stroke: #A80036; stroke-width: 2.0;"/><polygon fill="#A80036" points="784.5,7,790.5,2,788.5,7,790.5,12,784.5,7" style="stroke: #A80036; stroke-width: 1.0;"/><text fill="#000000" font-family="sans-serif" font-size="14" lengthAdjust="spacingAndGlyphs" textLength="115" x="728" y="86.1426">AdminOIFunctions</text><ellipse cx="788.5" cy="105.2188" fill="#FEFECE" filter="url(#f1p71doit0yir)" rx="12" ry="12" style="stroke: #A80036; stroke-width: 2.0;"/><polygon fill="#A80036" points="784.5,93.2188,790.5,88.2188,788.5,93.2188,790.5,98.2188,784.5,93.2188" style="stroke: #A80036; stroke-width: 1.0;"/><text fill="#000000" font-family="sans-serif" font-size="14" lengthAdjust="spacingAndGlyphs" textLength="138" x="859" y="49.5332">AdminPhotoFunctions</text><ellipse cx="931" cy="19" fill="#FEFECE" filter="url(#f1p71doit0yir)" rx="12" ry="12" style="stroke: #A80036; stroke-width: 2.0;"/><polygon fill="#A80036" points="927,7,933,2,931,7,933,12,927,7" style="stroke: #A80036; stroke-width: 1.0;"/><text fill="#000000" font-family="sans-serif" font-size="14" lengthAdjust="spacingAndGlyphs" textLength="138" x="859" y="86.1426">AdminPhotoFunctions</text><ellipse cx="931" cy="105.2188" fill="#FEFECE" filter="url(#f1p71doit0yir)" rx="12" ry="12" style="stroke: #A80036; stroke-width: 2.0;"/><polygon fill="#A80036" points="927,93.2188,933,88.2188,931,93.2188,933,98.2188,927,93.2188" style="stroke: #A80036; stroke-width: 1.0;"/><text fill="#000000" font-family="sans-serif" font-size="14" lengthAdjust="spacingAndGlyphs" textLength="99" x="1013" y="49.5332">PhotoFunctions</text><ellipse cx="1065.5" cy="19" fill="#FEFECE" filter="url(#f1p71doit0yir)" rx="12" ry="12" style="stroke: #A80036; stroke-width: 2.0;"/><polygon fill="#A80036" points="1061.5,7,1067.5,2,1065.5,7,1067.5,12,1061.5,7" style="stroke: #A80036; stroke-width: 1.0;"/><text fill="#000000" font-family="sans-serif" font-size="14" lengthAdjust="spacingAndGlyphs" textLength="99" x="1013" y="86.1426">PhotoFunctions</text><ellipse cx="1065.5" cy="105.2188" fill="#FEFECE" filter="url(#f1p71doit0yir)" rx="12" ry="12" style="stroke: #A80036; stroke-width: 2.0;"/><polygon fill="#A80036" points="1061.5,93.2188,1067.5,88.2188,1065.5,93.2188,1067.5,98.2188,1061.5,93.2188" style="stroke: #A80036; stroke-width: 1.0;"/><!--
@startuml Control Boundary
boundary RouteInput
boundary MapDisplay
boundary ListDisplay
control RouteGenerator
control GetLocation
control GetNearbyInfo
control Notifications
control Login
control AdminOIFunctions
control AdminPhotoFunctions
control PhotoFunctions
@enduml

PlantUML version 1.2019.09(Tue Aug 27 00:19:51 SGT 2019)
(GPL source distribution)
Java Runtime: Java(TM) SE Runtime Environment
JVM: Java HotSpot(TM) 64-Bit Server VM
Java Version: 12.0.2+10
Operating System: Windows 10
OS Version: 10.0
Default Encoding: Cp1252
Language: en
Country: SG
--></g></svg>