<?xml version="1.0" encoding="UTF-8" standalone="no"?><svg xmlns="http://www.w3.org/2000/svg" xmlns:xlink="http://www.w3.org/1999/xlink" contentScriptType="application/ecmascript" contentStyleType="text/css" height="175px" preserveAspectRatio="none" style="width:600px;height:175px;" version="1.1" viewBox="0 0 600 175" width="600px" zoomAndPan="magnify"><defs><filter height="300%" id="f14ihz7y7qw9ay" width="300%" x="-1" y="-1"><feGaussianBlur result="blurOut" stdDeviation="2.0"/><feColorMatrix in="blurOut" result="blurOut2" type="matrix" values="0 0 0 0 0 0 0 0 0 0 0 0 0 0 0 0 0 0 .4 0"/><feOffset dx="4.0" dy="4.0" in="blurOut2" result="blurOut3"/><feBlend in="SourceGraphic" in2="blurOut3" mode="normal"/></filter></defs><g><!--class OICollection--><rect fill="#FEFECE" filter="url(#f14ihz7y7qw9ay)" height="48" id="OICollection" style="stroke: #A80036; stroke-width: 1.5;" width="99" x="6" y="8"/><ellipse cx="21" cy="24" fill="#ADD1B2" rx="11" ry="11" style="stroke: #A80036; stroke-width: 1.0;"/><path d="M23.7656,19.875 Q23.9219,19.6563 24.1094,19.5469 Q24.2969,19.4375 24.5156,19.4375 Q24.8906,19.4375 25.125,19.7031 Q25.3594,19.9531 25.3594,20.5625 L25.3594,22.0156 Q25.3594,22.625 25.125,22.8906 Q24.8906,23.1563 24.5156,23.1563 Q24.1719,23.1563 23.9688,22.9531 Q23.7656,22.7656 23.6563,22.25 Q23.6094,21.8906 23.4219,21.7031 Q23.0938,21.3281 22.4844,21.1094 Q21.875,20.8906 21.25,20.8906 Q20.4844,20.8906 19.8438,21.2188 Q19.2188,21.5469 18.7188,22.2969 Q18.2344,23.0469 18.2344,24.0781 L18.2344,25.1719 Q18.2344,26.4063 19.125,27.2344 Q20.0156,28.0469 21.6094,28.0469 Q22.5469,28.0469 23.2031,27.7969 Q23.5938,27.6406 24.0156,27.2031 Q24.2813,26.9375 24.4219,26.8594 Q24.5781,26.7813 24.7813,26.7813 Q25.1094,26.7813 25.3594,27.0469 Q25.625,27.2969 25.625,27.6406 Q25.625,27.9844 25.2813,28.3906 Q24.7813,28.9688 23.9844,29.2969 Q22.9063,29.75 21.6094,29.75 Q20.0938,29.75 18.8906,29.125 Q17.9063,28.625 17.2188,27.5625 Q16.5313,26.4844 16.5313,25.2031 L16.5313,24.0469 Q16.5313,22.7188 17.1406,21.5781 Q17.7656,20.4219 18.8594,19.8125 Q19.9531,19.1875 21.1875,19.1875 Q21.9219,19.1875 22.5625,19.3594 Q23.2188,19.5156 23.7656,19.875 Z "/><text fill="#000000" font-family="sans-serif" font-size="12" lengthAdjust="spacingAndGlyphs" textLength="67" x="35" y="28.9102">OICollection</text><line style="stroke: #A80036; stroke-width: 1.5;" x1="7" x2="104" y1="40" y2="40"/><line style="stroke: #A80036; stroke-width: 1.5;" x1="7" x2="104" y1="48" y2="48"/><!--class ObjectInterest--><rect fill="#FEFECE" filter="url(#f14ihz7y7qw9ay)" height="48" id="ObjectInterest" style="stroke: #A80036; stroke-width: 1.5;" width="108" x="93.5" y="116"/><ellipse cx="108.5" cy="132" fill="#ADD1B2" rx="11" ry="11" style="stroke: #A80036; stroke-width: 1.0;"/><path d="M111.2656,127.875 Q111.4219,127.6563 111.6094,127.5469 Q111.7969,127.4375 112.0156,127.4375 Q112.3906,127.4375 112.625,127.7031 Q112.8594,127.9531 112.8594,128.5625 L112.8594,130.0156 Q112.8594,130.625 112.625,130.8906 Q112.3906,131.1563 112.0156,131.1563 Q111.6719,131.1563 111.4688,130.9531 Q111.2656,130.7656 111.1563,130.25 Q111.1094,129.8906 110.9219,129.7031 Q110.5938,129.3281 109.9844,129.1094 Q109.375,128.8906 108.75,128.8906 Q107.9844,128.8906 107.3438,129.2188 Q106.7188,129.5469 106.2188,130.2969 Q105.7344,131.0469 105.7344,132.0781 L105.7344,133.1719 Q105.7344,134.4063 106.625,135.2344 Q107.5156,136.0469 109.1094,136.0469 Q110.0469,136.0469 110.7031,135.7969 Q111.0938,135.6406 111.5156,135.2031 Q111.7813,134.9375 111.9219,134.8594 Q112.0781,134.7813 112.2813,134.7813 Q112.6094,134.7813 112.8594,135.0469 Q113.125,135.2969 113.125,135.6406 Q113.125,135.9844 112.7813,136.3906 Q112.2813,136.9688 111.4844,137.2969 Q110.4063,137.75 109.1094,137.75 Q107.5938,137.75 106.3906,137.125 Q105.4063,136.625 104.7188,135.5625 Q104.0313,134.4844 104.0313,133.2031 L104.0313,132.0469 Q104.0313,130.7188 104.6406,129.5781 Q105.2656,128.4219 106.3594,127.8125 Q107.4531,127.1875 108.6875,127.1875 Q109.4219,127.1875 110.0625,127.3594 Q110.7188,127.5156 111.2656,127.875 Z "/><text fill="#000000" font-family="sans-serif" font-size="12" lengthAdjust="spacingAndGlyphs" textLength="76" x="122.5" y="136.9102">ObjectInterest</text><line style="stroke: #A80036; stroke-width: 1.5;" x1="94.5" x2="200.5" y1="148" y2="148"/><line style="stroke: #A80036; stroke-width: 1.5;" x1="94.5" x2="200.5" y1="156" y2="156"/><!--class Photo--><rect fill="#FEFECE" filter="url(#f14ihz7y7qw9ay)" height="48" id="Photo" style="stroke: #A80036; stroke-width: 1.5;" width="64" x="140.5" y="8"/><ellipse cx="155.5" cy="24" fill="#ADD1B2" rx="11" ry="11" style="stroke: #A80036; stroke-width: 1.0;"/><path d="M158.2656,19.875 Q158.4219,19.6563 158.6094,19.5469 Q158.7969,19.4375 159.0156,19.4375 Q159.3906,19.4375 159.625,19.7031 Q159.8594,19.9531 159.8594,20.5625 L159.8594,22.0156 Q159.8594,22.625 159.625,22.8906 Q159.3906,23.1563 159.0156,23.1563 Q158.6719,23.1563 158.4688,22.9531 Q158.2656,22.7656 158.1563,22.25 Q158.1094,21.8906 157.9219,21.7031 Q157.5938,21.3281 156.9844,21.1094 Q156.375,20.8906 155.75,20.8906 Q154.9844,20.8906 154.3438,21.2188 Q153.7188,21.5469 153.2188,22.2969 Q152.7344,23.0469 152.7344,24.0781 L152.7344,25.1719 Q152.7344,26.4063 153.625,27.2344 Q154.5156,28.0469 156.1094,28.0469 Q157.0469,28.0469 157.7031,27.7969 Q158.0938,27.6406 158.5156,27.2031 Q158.7813,26.9375 158.9219,26.8594 Q159.0781,26.7813 159.2813,26.7813 Q159.6094,26.7813 159.8594,27.0469 Q160.125,27.2969 160.125,27.6406 Q160.125,27.9844 159.7813,28.3906 Q159.2813,28.9688 158.4844,29.2969 Q157.4063,29.75 156.1094,29.75 Q154.5938,29.75 153.3906,29.125 Q152.4063,28.625 151.7188,27.5625 Q151.0313,26.4844 151.0313,25.2031 L151.0313,24.0469 Q151.0313,22.7188 151.6406,21.5781 Q152.2656,20.4219 153.3594,19.8125 Q154.4531,19.1875 155.6875,19.1875 Q156.4219,19.1875 157.0625,19.3594 Q157.7188,19.5156 158.2656,19.875 Z "/><text fill="#000000" font-family="sans-serif" font-size="12" lengthAdjust="spacingAndGlyphs" textLength="32" x="169.5" y="28.9102">Photo</text><line style="stroke: #A80036; stroke-width: 1.5;" x1="141.5" x2="203.5" y1="40" y2="40"/><line style="stroke: #A80036; stroke-width: 1.5;" x1="141.5" x2="203.5" y1="48" y2="48"/><!--class User--><rect fill="#FEFECE" filter="url(#f14ihz7y7qw9ay)" height="48" id="User" style="stroke: #A80036; stroke-width: 1.5;" width="59" x="264" y="8"/><ellipse cx="279" cy="24" fill="#ADD1B2" rx="11" ry="11" style="stroke: #A80036; stroke-width: 1.0;"/><path d="M281.7656,19.875 Q281.9219,19.6563 282.1094,19.5469 Q282.2969,19.4375 282.5156,19.4375 Q282.8906,19.4375 283.125,19.7031 Q283.3594,19.9531 283.3594,20.5625 L283.3594,22.0156 Q283.3594,22.625 283.125,22.8906 Q282.8906,23.1563 282.5156,23.1563 Q282.1719,23.1563 281.9688,22.9531 Q281.7656,22.7656 281.6563,22.25 Q281.6094,21.8906 281.4219,21.7031 Q281.0938,21.3281 280.4844,21.1094 Q279.875,20.8906 279.25,20.8906 Q278.4844,20.8906 277.8438,21.2188 Q277.2188,21.5469 276.7188,22.2969 Q276.2344,23.0469 276.2344,24.0781 L276.2344,25.1719 Q276.2344,26.4063 277.125,27.2344 Q278.0156,28.0469 279.6094,28.0469 Q280.5469,28.0469 281.2031,27.7969 Q281.5938,27.6406 282.0156,27.2031 Q282.2813,26.9375 282.4219,26.8594 Q282.5781,26.7813 282.7813,26.7813 Q283.1094,26.7813 283.3594,27.0469 Q283.625,27.2969 283.625,27.6406 Q283.625,27.9844 283.2813,28.3906 Q282.7813,28.9688 281.9844,29.2969 Q280.9063,29.75 279.6094,29.75 Q278.0938,29.75 276.8906,29.125 Q275.9063,28.625 275.2188,27.5625 Q274.5313,26.4844 274.5313,25.2031 L274.5313,24.0469 Q274.5313,22.7188 275.1406,21.5781 Q275.7656,20.4219 276.8594,19.8125 Q277.9531,19.1875 279.1875,19.1875 Q279.9219,19.1875 280.5625,19.3594 Q281.2188,19.5156 281.7656,19.875 Z "/><text fill="#000000" font-family="sans-serif" font-size="12" lengthAdjust="spacingAndGlyphs" textLength="27" x="293" y="28.9102">User</text><line style="stroke: #A80036; stroke-width: 1.5;" x1="265" x2="322" y1="40" y2="40"/><line style="stroke: #A80036; stroke-width: 1.5;" x1="265" x2="322" y1="48" y2="48"/><!--class UserCollection--><rect fill="#FEFECE" filter="url(#f14ihz7y7qw9ay)" height="48" id="UserCollection" style="stroke: #A80036; stroke-width: 1.5;" width="114" x="236.5" y="116"/><ellipse cx="251.5" cy="132" fill="#ADD1B2" rx="11" ry="11" style="stroke: #A80036; stroke-width: 1.0;"/><path d="M254.2656,127.875 Q254.4219,127.6563 254.6094,127.5469 Q254.7969,127.4375 255.0156,127.4375 Q255.3906,127.4375 255.625,127.7031 Q255.8594,127.9531 255.8594,128.5625 L255.8594,130.0156 Q255.8594,130.625 255.625,130.8906 Q255.3906,131.1563 255.0156,131.1563 Q254.6719,131.1563 254.4688,130.9531 Q254.2656,130.7656 254.1563,130.25 Q254.1094,129.8906 253.9219,129.7031 Q253.5938,129.3281 252.9844,129.1094 Q252.375,128.8906 251.75,128.8906 Q250.9844,128.8906 250.3438,129.2188 Q249.7188,129.5469 249.2188,130.2969 Q248.7344,131.0469 248.7344,132.0781 L248.7344,133.1719 Q248.7344,134.4063 249.625,135.2344 Q250.5156,136.0469 252.1094,136.0469 Q253.0469,136.0469 253.7031,135.7969 Q254.0938,135.6406 254.5156,135.2031 Q254.7813,134.9375 254.9219,134.8594 Q255.0781,134.7813 255.2813,134.7813 Q255.6094,134.7813 255.8594,135.0469 Q256.125,135.2969 256.125,135.6406 Q256.125,135.9844 255.7813,136.3906 Q255.2813,136.9688 254.4844,137.2969 Q253.4063,137.75 252.1094,137.75 Q250.5938,137.75 249.3906,137.125 Q248.4063,136.625 247.7188,135.5625 Q247.0313,134.4844 247.0313,133.2031 L247.0313,132.0469 Q247.0313,130.7188 247.6406,129.5781 Q248.2656,128.4219 249.3594,127.8125 Q250.4531,127.1875 251.6875,127.1875 Q252.4219,127.1875 253.0625,127.3594 Q253.7188,127.5156 254.2656,127.875 Z "/><text fill="#000000" font-family="sans-serif" font-size="12" lengthAdjust="spacingAndGlyphs" textLength="82" x="265.5" y="136.9102">UserCollection</text><line style="stroke: #A80036; stroke-width: 1.5;" x1="237.5" x2="349.5" y1="148" y2="148"/><line style="stroke: #A80036; stroke-width: 1.5;" x1="237.5" x2="349.5" y1="156" y2="156"/><!--class Admin--><rect fill="#FEFECE" filter="url(#f14ihz7y7qw9ay)" height="48" id="Admin" style="stroke: #A80036; stroke-width: 1.5;" width="67" x="386" y="116"/><ellipse cx="401" cy="132" fill="#ADD1B2" rx="11" ry="11" style="stroke: #A80036; stroke-width: 1.0;"/><path d="M403.7656,127.875 Q403.9219,127.6563 404.1094,127.5469 Q404.2969,127.4375 404.5156,127.4375 Q404.8906,127.4375 405.125,127.7031 Q405.3594,127.9531 405.3594,128.5625 L405.3594,130.0156 Q405.3594,130.625 405.125,130.8906 Q404.8906,131.1563 404.5156,131.1563 Q404.1719,131.1563 403.9688,130.9531 Q403.7656,130.7656 403.6563,130.25 Q403.6094,129.8906 403.4219,129.7031 Q403.0938,129.3281 402.4844,129.1094 Q401.875,128.8906 401.25,128.8906 Q400.4844,128.8906 399.8438,129.2188 Q399.2188,129.5469 398.7188,130.2969 Q398.2344,131.0469 398.2344,132.0781 L398.2344,133.1719 Q398.2344,134.4063 399.125,135.2344 Q400.0156,136.0469 401.6094,136.0469 Q402.5469,136.0469 403.2031,135.7969 Q403.5938,135.6406 404.0156,135.2031 Q404.2813,134.9375 404.4219,134.8594 Q404.5781,134.7813 404.7813,134.7813 Q405.1094,134.7813 405.3594,135.0469 Q405.625,135.2969 405.625,135.6406 Q405.625,135.9844 405.2813,136.3906 Q404.7813,136.9688 403.9844,137.2969 Q402.9063,137.75 401.6094,137.75 Q400.0938,137.75 398.8906,137.125 Q397.9063,136.625 397.2188,135.5625 Q396.5313,134.4844 396.5313,133.2031 L396.5313,132.0469 Q396.5313,130.7188 397.1406,129.5781 Q397.7656,128.4219 398.8594,127.8125 Q399.9531,127.1875 401.1875,127.1875 Q401.9219,127.1875 402.5625,127.3594 Q403.2188,127.5156 403.7656,127.875 Z "/><text fill="#000000" font-family="sans-serif" font-size="12" lengthAdjust="spacingAndGlyphs" textLength="35" x="415" y="136.9102">Admin</text><line style="stroke: #A80036; stroke-width: 1.5;" x1="387" x2="452" y1="148" y2="148"/><line style="stroke: #A80036; stroke-width: 1.5;" x1="387" x2="452" y1="156" y2="156"/><!--class InfoCollection--><rect fill="#FEFECE" filter="url(#f14ihz7y7qw9ay)" height="48" id="InfoCollection" style="stroke: #A80036; stroke-width: 1.5;" width="107" x="482" y="8"/><ellipse cx="497" cy="24" fill="#ADD1B2" rx="11" ry="11" style="stroke: #A80036; stroke-width: 1.0;"/><path d="M499.7656,19.875 Q499.9219,19.6563 500.1094,19.5469 Q500.2969,19.4375 500.5156,19.4375 Q500.8906,19.4375 501.125,19.7031 Q501.3594,19.9531 501.3594,20.5625 L501.3594,22.0156 Q501.3594,22.625 501.125,22.8906 Q500.8906,23.1563 500.5156,23.1563 Q500.1719,23.1563 499.9688,22.9531 Q499.7656,22.7656 499.6563,22.25 Q499.6094,21.8906 499.4219,21.7031 Q499.0938,21.3281 498.4844,21.1094 Q497.875,20.8906 497.25,20.8906 Q496.4844,20.8906 495.8438,21.2188 Q495.2188,21.5469 494.7188,22.2969 Q494.2344,23.0469 494.2344,24.0781 L494.2344,25.1719 Q494.2344,26.4063 495.125,27.2344 Q496.0156,28.0469 497.6094,28.0469 Q498.5469,28.0469 499.2031,27.7969 Q499.5938,27.6406 500.0156,27.2031 Q500.2813,26.9375 500.4219,26.8594 Q500.5781,26.7813 500.7813,26.7813 Q501.1094,26.7813 501.3594,27.0469 Q501.625,27.2969 501.625,27.6406 Q501.625,27.9844 501.2813,28.3906 Q500.7813,28.9688 499.9844,29.2969 Q498.9063,29.75 497.6094,29.75 Q496.0938,29.75 494.8906,29.125 Q493.9063,28.625 493.2188,27.5625 Q492.5313,26.4844 492.5313,25.2031 L492.5313,24.0469 Q492.5313,22.7188 493.1406,21.5781 Q493.7656,20.4219 494.8594,19.8125 Q495.9531,19.1875 497.1875,19.1875 Q497.9219,19.1875 498.5625,19.3594 Q499.2188,19.5156 499.7656,19.875 Z "/><text fill="#000000" font-family="sans-serif" font-size="12" lengthAdjust="spacingAndGlyphs" textLength="75" x="511" y="28.9102">InfoCollection</text><line style="stroke: #A80036; stroke-width: 1.5;" x1="483" x2="588" y1="40" y2="40"/><line style="stroke: #A80036; stroke-width: 1.5;" x1="483" x2="588" y1="48" y2="48"/><!--class Information--><rect fill="#FEFECE" filter="url(#f14ihz7y7qw9ay)" height="48" id="Information" style="stroke: #A80036; stroke-width: 1.5;" width="94" x="488.5" y="116"/><ellipse cx="503.5" cy="132" fill="#ADD1B2" rx="11" ry="11" style="stroke: #A80036; stroke-width: 1.0;"/><path d="M506.2656,127.875 Q506.4219,127.6563 506.6094,127.5469 Q506.7969,127.4375 507.0156,127.4375 Q507.3906,127.4375 507.625,127.7031 Q507.8594,127.9531 507.8594,128.5625 L507.8594,130.0156 Q507.8594,130.625 507.625,130.8906 Q507.3906,131.1563 507.0156,131.1563 Q506.6719,131.1563 506.4688,130.9531 Q506.2656,130.7656 506.1563,130.25 Q506.1094,129.8906 505.9219,129.7031 Q505.5938,129.3281 504.9844,129.1094 Q504.375,128.8906 503.75,128.8906 Q502.9844,128.8906 502.3438,129.2188 Q501.7188,129.5469 501.2188,130.2969 Q500.7344,131.0469 500.7344,132.0781 L500.7344,133.1719 Q500.7344,134.4063 501.625,135.2344 Q502.5156,136.0469 504.1094,136.0469 Q505.0469,136.0469 505.7031,135.7969 Q506.0938,135.6406 506.5156,135.2031 Q506.7813,134.9375 506.9219,134.8594 Q507.0781,134.7813 507.2813,134.7813 Q507.6094,134.7813 507.8594,135.0469 Q508.125,135.2969 508.125,135.6406 Q508.125,135.9844 507.7813,136.3906 Q507.2813,136.9688 506.4844,137.2969 Q505.4063,137.75 504.1094,137.75 Q502.5938,137.75 501.3906,137.125 Q500.4063,136.625 499.7188,135.5625 Q499.0313,134.4844 499.0313,133.2031 L499.0313,132.0469 Q499.0313,130.7188 499.6406,129.5781 Q500.2656,128.4219 501.3594,127.8125 Q502.4531,127.1875 503.6875,127.1875 Q504.4219,127.1875 505.0625,127.3594 Q505.7188,127.5156 506.2656,127.875 Z "/><text fill="#000000" font-family="sans-serif" font-size="12" lengthAdjust="spacingAndGlyphs" textLength="62" x="517.5" y="136.9102">Information</text><line style="stroke: #A80036; stroke-width: 1.5;" x1="489.5" x2="581.5" y1="148" y2="148"/><line style="stroke: #A80036; stroke-width: 1.5;" x1="489.5" x2="581.5" y1="156" y2="156"/><!--reverse link OICollection to ObjectInterest--><path d="M84.2148,66.0844 C98.1789,82.1736 114.63,101.128 127.259,115.6784 " fill="none" id="OICollection&lt;-ObjectInterest" style="stroke: #A80036; stroke-width: 1.0;"/><polygon fill="#A80036" points="75.4626,56,76.3745,63.1532,83.3282,65.0627,82.4163,57.9095,75.4626,56" style="stroke: #A80036; stroke-width: 1.0;"/><!--link Photo to ObjectInterest--><path d="M167.075,56 C163.854,69.6578 159.699,87.2779 156.045,102.7677 " fill="none" id="Photo-&gt;ObjectInterest" style="stroke: #A80036; stroke-width: 1.0;"/><polygon fill="#A80036" points="153,115.6784,158.2705,110.7568,155.7546,103.9988,150.4841,108.9204,153,115.6784" style="stroke: #A80036; stroke-width: 1.0;"/><!--link User to UserCollection--><path d="M293.5,56 C293.5,69.5198 293.5,86.9223 293.5,102.2977 " fill="none" id="User-&gt;UserCollection" style="stroke: #A80036; stroke-width: 1.0;"/><polygon fill="#A80036" points="293.5,115.6784,297.5,109.6784,293.5,103.6784,289.5,109.6784,293.5,115.6784" style="stroke: #A80036; stroke-width: 1.0;"/><!--reverse link User to Admin--><path d="M336.416,69.1036 C354.721,84.5034 375.553,102.0288 391.778,115.6784 " fill="none" id="User&lt;-Admin" style="stroke: #A80036; stroke-width: 1.0;"/><polygon fill="none" points="331.638,74.2323,320.84,56,340.651,63.519,331.638,74.2323" style="stroke: #A80036; stroke-width: 1.0;"/><!--link User to ObjectInterest--><path d="M263.955,54.451 C239.374,72.2967 204.459,97.6462 179.278,115.9281 " fill="none" id="User-ObjectInterest" style="stroke: #A80036; stroke-width: 1.0; stroke-dasharray: 7.0,7.0;"/><!--reverse link InfoCollection to Information--><path d="M535.5,69.3383 C535.5,84.6813 535.5,102.098 535.5,115.6784 " fill="none" id="InfoCollection&lt;-Information" style="stroke: #A80036; stroke-width: 1.0;"/><polygon fill="#A80036" points="535.5,56,531.5,62,535.5,68,539.5,62,535.5,56" style="stroke: #A80036; stroke-width: 1.0;"/><!--
@startuml Entity Class Diagram
OICollection *- - ObjectInterest
Photo - -* ObjectInterest
User - -* UserCollection
User <|- - Admin
User .. ObjectInterest
InfoCollection *- - Information
@enduml

PlantUML version 1.2019.09(Tue Aug 27 00:19:51 SGT 2019)
(GPL source distribution)
Java Runtime: Java(TM) SE Runtime Environment
JVM: Java HotSpot(TM) 64-Bit Server VM
Java Version: 12.0.2+10
Operating System: Windows 10
OS Version: 10.0
Default Encoding: Cp1252
Language: en
Country: SG
--></g></svg>