<?xml version="1.0" encoding="UTF-8" standalone="no"?><svg xmlns="http://www.w3.org/2000/svg" xmlns:xlink="http://www.w3.org/1999/xlink" contentScriptType="application/ecmascript" contentStyleType="text/css" height="175px" preserveAspectRatio="none" style="width:657px;height:175px;" version="1.1" viewBox="0 0 657 175" width="657px" zoomAndPan="magnify"><defs><filter height="300%" id="f1qq9n20dzyyhn" width="300%" x="-1" y="-1"><feGaussianBlur result="blurOut" stdDeviation="2.0"/><feColorMatrix in="blurOut" result="blurOut2" type="matrix" values="0 0 0 0 0 0 0 0 0 0 0 0 0 0 0 0 0 0 .4 0"/><feOffset dx="4.0" dy="4.0" in="blurOut2" result="blurOut3"/><feBlend in="SourceGraphic" in2="blurOut3" mode="normal"/></filter></defs><g><!--class OICollection--><rect fill="#FEFECE" filter="url(#f1qq9n20dzyyhn)" height="48" id="OICollection" style="stroke: #A80036; stroke-width: 1.5;" width="99" x="6" y="8"/><ellipse cx="21" cy="24" fill="#ADD1B2" rx="11" ry="11" style="stroke: #A80036; stroke-width: 1.0;"/><path d="M23.7656,19.875 Q23.9219,19.6563 24.1094,19.5469 Q24.2969,19.4375 24.5156,19.4375 Q24.8906,19.4375 25.125,19.7031 Q25.3594,19.9531 25.3594,20.5625 L25.3594,22.0156 Q25.3594,22.625 25.125,22.8906 Q24.8906,23.1563 24.5156,23.1563 Q24.1719,23.1563 23.9688,22.9531 Q23.7656,22.7656 23.6563,22.25 Q23.6094,21.8906 23.4219,21.7031 Q23.0938,21.3281 22.4844,21.1094 Q21.875,20.8906 21.25,20.8906 Q20.4844,20.8906 19.8438,21.2188 Q19.2188,21.5469 18.7188,22.2969 Q18.2344,23.0469 18.2344,24.0781 L18.2344,25.1719 Q18.2344,26.4063 19.125,27.2344 Q20.0156,28.0469 21.6094,28.0469 Q22.5469,28.0469 23.2031,27.7969 Q23.5938,27.6406 24.0156,27.2031 Q24.2813,26.9375 24.4219,26.8594 Q24.5781,26.7813 24.7813,26.7813 Q25.1094,26.7813 25.3594,27.0469 Q25.625,27.2969 25.625,27.6406 Q25.625,27.9844 25.2813,28.3906 Q24.7813,28.9688 23.9844,29.2969 Q22.9063,29.75 21.6094,29.75 Q20.0938,29.75 18.8906,29.125 Q17.9063,28.625 17.2188,27.5625 Q16.5313,26.4844 16.5313,25.2031 L16.5313,24.0469 Q16.5313,22.7188 17.1406,21.5781 Q17.7656,20.4219 18.8594,19.8125 Q19.9531,19.1875 21.1875,19.1875 Q21.9219,19.1875 22.5625,19.3594 Q23.2188,19.5156 23.7656,19.875 Z "/><text fill="#000000" font-family="sans-serif" font-size="12" lengthAdjust="spacingAndGlyphs" textLength="67" x="35" y="28.9102">OICollection</text><line style="stroke: #A80036; stroke-width: 1.5;" x1="7" x2="104" y1="40" y2="40"/><line style="stroke: #A80036; stroke-width: 1.5;" x1="7" x2="104" y1="48" y2="48"/><!--class ObjectInterest--><rect fill="#FEFECE" filter="url(#f1qq9n20dzyyhn)" height="48" id="ObjectInterest" style="stroke: #A80036; stroke-width: 1.5;" width="108" x="49.5" y="116"/><ellipse cx="64.5" cy="132" fill="#ADD1B2" rx="11" ry="11" style="stroke: #A80036; stroke-width: 1.0;"/><path d="M67.2656,127.875 Q67.4219,127.6563 67.6094,127.5469 Q67.7969,127.4375 68.0156,127.4375 Q68.3906,127.4375 68.625,127.7031 Q68.8594,127.9531 68.8594,128.5625 L68.8594,130.0156 Q68.8594,130.625 68.625,130.8906 Q68.3906,131.1563 68.0156,131.1563 Q67.6719,131.1563 67.4688,130.9531 Q67.2656,130.7656 67.1563,130.25 Q67.1094,129.8906 66.9219,129.7031 Q66.5938,129.3281 65.9844,129.1094 Q65.375,128.8906 64.75,128.8906 Q63.9844,128.8906 63.3438,129.2188 Q62.7188,129.5469 62.2188,130.2969 Q61.7344,131.0469 61.7344,132.0781 L61.7344,133.1719 Q61.7344,134.4063 62.625,135.2344 Q63.5156,136.0469 65.1094,136.0469 Q66.0469,136.0469 66.7031,135.7969 Q67.0938,135.6406 67.5156,135.2031 Q67.7813,134.9375 67.9219,134.8594 Q68.0781,134.7813 68.2813,134.7813 Q68.6094,134.7813 68.8594,135.0469 Q69.125,135.2969 69.125,135.6406 Q69.125,135.9844 68.7813,136.3906 Q68.2813,136.9688 67.4844,137.2969 Q66.4063,137.75 65.1094,137.75 Q63.5938,137.75 62.3906,137.125 Q61.4063,136.625 60.7188,135.5625 Q60.0313,134.4844 60.0313,133.2031 L60.0313,132.0469 Q60.0313,130.7188 60.6406,129.5781 Q61.2656,128.4219 62.3594,127.8125 Q63.4531,127.1875 64.6875,127.1875 Q65.4219,127.1875 66.0625,127.3594 Q66.7188,127.5156 67.2656,127.875 Z "/><text fill="#000000" font-family="sans-serif" font-size="12" lengthAdjust="spacingAndGlyphs" textLength="76" x="78.5" y="136.9102">ObjectInterest</text><line style="stroke: #A80036; stroke-width: 1.5;" x1="50.5" x2="156.5" y1="148" y2="148"/><line style="stroke: #A80036; stroke-width: 1.5;" x1="50.5" x2="156.5" y1="156" y2="156"/><!--class Photo--><rect fill="#FEFECE" filter="url(#f1qq9n20dzyyhn)" height="48" id="Photo" style="stroke: #A80036; stroke-width: 1.5;" width="64" x="140.5" y="8"/><ellipse cx="155.5" cy="24" fill="#ADD1B2" rx="11" ry="11" style="stroke: #A80036; stroke-width: 1.0;"/><path d="M158.2656,19.875 Q158.4219,19.6563 158.6094,19.5469 Q158.7969,19.4375 159.0156,19.4375 Q159.3906,19.4375 159.625,19.7031 Q159.8594,19.9531 159.8594,20.5625 L159.8594,22.0156 Q159.8594,22.625 159.625,22.8906 Q159.3906,23.1563 159.0156,23.1563 Q158.6719,23.1563 158.4688,22.9531 Q158.2656,22.7656 158.1563,22.25 Q158.1094,21.8906 157.9219,21.7031 Q157.5938,21.3281 156.9844,21.1094 Q156.375,20.8906 155.75,20.8906 Q154.9844,20.8906 154.3438,21.2188 Q153.7188,21.5469 153.2188,22.2969 Q152.7344,23.0469 152.7344,24.0781 L152.7344,25.1719 Q152.7344,26.4063 153.625,27.2344 Q154.5156,28.0469 156.1094,28.0469 Q157.0469,28.0469 157.7031,27.7969 Q158.0938,27.6406 158.5156,27.2031 Q158.7813,26.9375 158.9219,26.8594 Q159.0781,26.7813 159.2813,26.7813 Q159.6094,26.7813 159.8594,27.0469 Q160.125,27.2969 160.125,27.6406 Q160.125,27.9844 159.7813,28.3906 Q159.2813,28.9688 158.4844,29.2969 Q157.4063,29.75 156.1094,29.75 Q154.5938,29.75 153.3906,29.125 Q152.4063,28.625 151.7188,27.5625 Q151.0313,26.4844 151.0313,25.2031 L151.0313,24.0469 Q151.0313,22.7188 151.6406,21.5781 Q152.2656,20.4219 153.3594,19.8125 Q154.4531,19.1875 155.6875,19.1875 Q156.4219,19.1875 157.0625,19.3594 Q157.7188,19.5156 158.2656,19.875 Z "/><text fill="#000000" font-family="sans-serif" font-size="12" lengthAdjust="spacingAndGlyphs" textLength="32" x="169.5" y="28.9102">Photo</text><line style="stroke: #A80036; stroke-width: 1.5;" x1="141.5" x2="203.5" y1="40" y2="40"/><line style="stroke: #A80036; stroke-width: 1.5;" x1="141.5" x2="203.5" y1="48" y2="48"/><!--class User--><rect fill="#FEFECE" filter="url(#f1qq9n20dzyyhn)" height="48" id="User" style="stroke: #A80036; stroke-width: 1.5;" width="59" x="269" y="8"/><ellipse cx="284" cy="24" fill="#ADD1B2" rx="11" ry="11" style="stroke: #A80036; stroke-width: 1.0;"/><path d="M286.7656,19.875 Q286.9219,19.6563 287.1094,19.5469 Q287.2969,19.4375 287.5156,19.4375 Q287.8906,19.4375 288.125,19.7031 Q288.3594,19.9531 288.3594,20.5625 L288.3594,22.0156 Q288.3594,22.625 288.125,22.8906 Q287.8906,23.1563 287.5156,23.1563 Q287.1719,23.1563 286.9688,22.9531 Q286.7656,22.7656 286.6563,22.25 Q286.6094,21.8906 286.4219,21.7031 Q286.0938,21.3281 285.4844,21.1094 Q284.875,20.8906 284.25,20.8906 Q283.4844,20.8906 282.8438,21.2188 Q282.2188,21.5469 281.7188,22.2969 Q281.2344,23.0469 281.2344,24.0781 L281.2344,25.1719 Q281.2344,26.4063 282.125,27.2344 Q283.0156,28.0469 284.6094,28.0469 Q285.5469,28.0469 286.2031,27.7969 Q286.5938,27.6406 287.0156,27.2031 Q287.2813,26.9375 287.4219,26.8594 Q287.5781,26.7813 287.7813,26.7813 Q288.1094,26.7813 288.3594,27.0469 Q288.625,27.2969 288.625,27.6406 Q288.625,27.9844 288.2813,28.3906 Q287.7813,28.9688 286.9844,29.2969 Q285.9063,29.75 284.6094,29.75 Q283.0938,29.75 281.8906,29.125 Q280.9063,28.625 280.2188,27.5625 Q279.5313,26.4844 279.5313,25.2031 L279.5313,24.0469 Q279.5313,22.7188 280.1406,21.5781 Q280.7656,20.4219 281.8594,19.8125 Q282.9531,19.1875 284.1875,19.1875 Q284.9219,19.1875 285.5625,19.3594 Q286.2188,19.5156 286.7656,19.875 Z "/><text fill="#000000" font-family="sans-serif" font-size="12" lengthAdjust="spacingAndGlyphs" textLength="27" x="298" y="28.9102">User</text><line style="stroke: #A80036; stroke-width: 1.5;" x1="270" x2="327" y1="40" y2="40"/><line style="stroke: #A80036; stroke-width: 1.5;" x1="270" x2="327" y1="48" y2="48"/><!--class UserCollection--><rect fill="#FEFECE" filter="url(#f1qq9n20dzyyhn)" height="48" id="UserCollection" style="stroke: #A80036; stroke-width: 1.5;" width="114" x="192.5" y="116"/><ellipse cx="207.5" cy="132" fill="#ADD1B2" rx="11" ry="11" style="stroke: #A80036; stroke-width: 1.0;"/><path d="M210.2656,127.875 Q210.4219,127.6563 210.6094,127.5469 Q210.7969,127.4375 211.0156,127.4375 Q211.3906,127.4375 211.625,127.7031 Q211.8594,127.9531 211.8594,128.5625 L211.8594,130.0156 Q211.8594,130.625 211.625,130.8906 Q211.3906,131.1563 211.0156,131.1563 Q210.6719,131.1563 210.4688,130.9531 Q210.2656,130.7656 210.1563,130.25 Q210.1094,129.8906 209.9219,129.7031 Q209.5938,129.3281 208.9844,129.1094 Q208.375,128.8906 207.75,128.8906 Q206.9844,128.8906 206.3438,129.2188 Q205.7188,129.5469 205.2188,130.2969 Q204.7344,131.0469 204.7344,132.0781 L204.7344,133.1719 Q204.7344,134.4063 205.625,135.2344 Q206.5156,136.0469 208.1094,136.0469 Q209.0469,136.0469 209.7031,135.7969 Q210.0938,135.6406 210.5156,135.2031 Q210.7813,134.9375 210.9219,134.8594 Q211.0781,134.7813 211.2813,134.7813 Q211.6094,134.7813 211.8594,135.0469 Q212.125,135.2969 212.125,135.6406 Q212.125,135.9844 211.7813,136.3906 Q211.2813,136.9688 210.4844,137.2969 Q209.4063,137.75 208.1094,137.75 Q206.5938,137.75 205.3906,137.125 Q204.4063,136.625 203.7188,135.5625 Q203.0313,134.4844 203.0313,133.2031 L203.0313,132.0469 Q203.0313,130.7188 203.6406,129.5781 Q204.2656,128.4219 205.3594,127.8125 Q206.4531,127.1875 207.6875,127.1875 Q208.4219,127.1875 209.0625,127.3594 Q209.7188,127.5156 210.2656,127.875 Z "/><text fill="#000000" font-family="sans-serif" font-size="12" lengthAdjust="spacingAndGlyphs" textLength="82" x="221.5" y="136.9102">UserCollection</text><line style="stroke: #A80036; stroke-width: 1.5;" x1="193.5" x2="305.5" y1="148" y2="148"/><line style="stroke: #A80036; stroke-width: 1.5;" x1="193.5" x2="305.5" y1="156" y2="156"/><!--class Admin--><rect fill="#FEFECE" filter="url(#f1qq9n20dzyyhn)" height="48" id="Admin" style="stroke: #A80036; stroke-width: 1.5;" width="67" x="342" y="116"/><ellipse cx="357" cy="132" fill="#ADD1B2" rx="11" ry="11" style="stroke: #A80036; stroke-width: 1.0;"/><path d="M359.7656,127.875 Q359.9219,127.6563 360.1094,127.5469 Q360.2969,127.4375 360.5156,127.4375 Q360.8906,127.4375 361.125,127.7031 Q361.3594,127.9531 361.3594,128.5625 L361.3594,130.0156 Q361.3594,130.625 361.125,130.8906 Q360.8906,131.1563 360.5156,131.1563 Q360.1719,131.1563 359.9688,130.9531 Q359.7656,130.7656 359.6563,130.25 Q359.6094,129.8906 359.4219,129.7031 Q359.0938,129.3281 358.4844,129.1094 Q357.875,128.8906 357.25,128.8906 Q356.4844,128.8906 355.8438,129.2188 Q355.2188,129.5469 354.7188,130.2969 Q354.2344,131.0469 354.2344,132.0781 L354.2344,133.1719 Q354.2344,134.4063 355.125,135.2344 Q356.0156,136.0469 357.6094,136.0469 Q358.5469,136.0469 359.2031,135.7969 Q359.5938,135.6406 360.0156,135.2031 Q360.2813,134.9375 360.4219,134.8594 Q360.5781,134.7813 360.7813,134.7813 Q361.1094,134.7813 361.3594,135.0469 Q361.625,135.2969 361.625,135.6406 Q361.625,135.9844 361.2813,136.3906 Q360.7813,136.9688 359.9844,137.2969 Q358.9063,137.75 357.6094,137.75 Q356.0938,137.75 354.8906,137.125 Q353.9063,136.625 353.2188,135.5625 Q352.5313,134.4844 352.5313,133.2031 L352.5313,132.0469 Q352.5313,130.7188 353.1406,129.5781 Q353.7656,128.4219 354.8594,127.8125 Q355.9531,127.1875 357.1875,127.1875 Q357.9219,127.1875 358.5625,127.3594 Q359.2188,127.5156 359.7656,127.875 Z "/><text fill="#000000" font-family="sans-serif" font-size="12" lengthAdjust="spacingAndGlyphs" textLength="35" x="371" y="136.9102">Admin</text><line style="stroke: #A80036; stroke-width: 1.5;" x1="343" x2="408" y1="148" y2="148"/><line style="stroke: #A80036; stroke-width: 1.5;" x1="343" x2="408" y1="156" y2="156"/><!--class Filters--><rect fill="#FEFECE" filter="url(#f1qq9n20dzyyhn)" height="48" id="Filters" style="stroke: #A80036; stroke-width: 1.5;" width="66" x="444.5" y="116"/><ellipse cx="459.5" cy="132" fill="#ADD1B2" rx="11" ry="11" style="stroke: #A80036; stroke-width: 1.0;"/><path d="M462.2656,127.875 Q462.4219,127.6563 462.6094,127.5469 Q462.7969,127.4375 463.0156,127.4375 Q463.3906,127.4375 463.625,127.7031 Q463.8594,127.9531 463.8594,128.5625 L463.8594,130.0156 Q463.8594,130.625 463.625,130.8906 Q463.3906,131.1563 463.0156,131.1563 Q462.6719,131.1563 462.4688,130.9531 Q462.2656,130.7656 462.1563,130.25 Q462.1094,129.8906 461.9219,129.7031 Q461.5938,129.3281 460.9844,129.1094 Q460.375,128.8906 459.75,128.8906 Q458.9844,128.8906 458.3438,129.2188 Q457.7188,129.5469 457.2188,130.2969 Q456.7344,131.0469 456.7344,132.0781 L456.7344,133.1719 Q456.7344,134.4063 457.625,135.2344 Q458.5156,136.0469 460.1094,136.0469 Q461.0469,136.0469 461.7031,135.7969 Q462.0938,135.6406 462.5156,135.2031 Q462.7813,134.9375 462.9219,134.8594 Q463.0781,134.7813 463.2813,134.7813 Q463.6094,134.7813 463.8594,135.0469 Q464.125,135.2969 464.125,135.6406 Q464.125,135.9844 463.7813,136.3906 Q463.2813,136.9688 462.4844,137.2969 Q461.4063,137.75 460.1094,137.75 Q458.5938,137.75 457.3906,137.125 Q456.4063,136.625 455.7188,135.5625 Q455.0313,134.4844 455.0313,133.2031 L455.0313,132.0469 Q455.0313,130.7188 455.6406,129.5781 Q456.2656,128.4219 457.3594,127.8125 Q458.4531,127.1875 459.6875,127.1875 Q460.4219,127.1875 461.0625,127.3594 Q461.7188,127.5156 462.2656,127.875 Z "/><text fill="#000000" font-family="sans-serif" font-size="12" lengthAdjust="spacingAndGlyphs" textLength="34" x="473.5" y="136.9102">Filters</text><line style="stroke: #A80036; stroke-width: 1.5;" x1="445.5" x2="509.5" y1="148" y2="148"/><line style="stroke: #A80036; stroke-width: 1.5;" x1="445.5" x2="509.5" y1="156" y2="156"/><!--class InfoCollection--><rect fill="#FEFECE" filter="url(#f1qq9n20dzyyhn)" height="48" id="InfoCollection" style="stroke: #A80036; stroke-width: 1.5;" width="107" x="539" y="8"/><ellipse cx="554" cy="24" fill="#ADD1B2" rx="11" ry="11" style="stroke: #A80036; stroke-width: 1.0;"/><path d="M556.7656,19.875 Q556.9219,19.6563 557.1094,19.5469 Q557.2969,19.4375 557.5156,19.4375 Q557.8906,19.4375 558.125,19.7031 Q558.3594,19.9531 558.3594,20.5625 L558.3594,22.0156 Q558.3594,22.625 558.125,22.8906 Q557.8906,23.1563 557.5156,23.1563 Q557.1719,23.1563 556.9688,22.9531 Q556.7656,22.7656 556.6563,22.25 Q556.6094,21.8906 556.4219,21.7031 Q556.0938,21.3281 555.4844,21.1094 Q554.875,20.8906 554.25,20.8906 Q553.4844,20.8906 552.8438,21.2188 Q552.2188,21.5469 551.7188,22.2969 Q551.2344,23.0469 551.2344,24.0781 L551.2344,25.1719 Q551.2344,26.4063 552.125,27.2344 Q553.0156,28.0469 554.6094,28.0469 Q555.5469,28.0469 556.2031,27.7969 Q556.5938,27.6406 557.0156,27.2031 Q557.2813,26.9375 557.4219,26.8594 Q557.5781,26.7813 557.7813,26.7813 Q558.1094,26.7813 558.3594,27.0469 Q558.625,27.2969 558.625,27.6406 Q558.625,27.9844 558.2813,28.3906 Q557.7813,28.9688 556.9844,29.2969 Q555.9063,29.75 554.6094,29.75 Q553.0938,29.75 551.8906,29.125 Q550.9063,28.625 550.2188,27.5625 Q549.5313,26.4844 549.5313,25.2031 L549.5313,24.0469 Q549.5313,22.7188 550.1406,21.5781 Q550.7656,20.4219 551.8594,19.8125 Q552.9531,19.1875 554.1875,19.1875 Q554.9219,19.1875 555.5625,19.3594 Q556.2188,19.5156 556.7656,19.875 Z "/><text fill="#000000" font-family="sans-serif" font-size="12" lengthAdjust="spacingAndGlyphs" textLength="75" x="568" y="28.9102">InfoCollection</text><line style="stroke: #A80036; stroke-width: 1.5;" x1="540" x2="645" y1="40" y2="40"/><line style="stroke: #A80036; stroke-width: 1.5;" x1="540" x2="645" y1="48" y2="48"/><!--class Information--><rect fill="#FEFECE" filter="url(#f1qq9n20dzyyhn)" height="48" id="Information" style="stroke: #A80036; stroke-width: 1.5;" width="94" x="545.5" y="116"/><ellipse cx="560.5" cy="132" fill="#ADD1B2" rx="11" ry="11" style="stroke: #A80036; stroke-width: 1.0;"/><path d="M563.2656,127.875 Q563.4219,127.6563 563.6094,127.5469 Q563.7969,127.4375 564.0156,127.4375 Q564.3906,127.4375 564.625,127.7031 Q564.8594,127.9531 564.8594,128.5625 L564.8594,130.0156 Q564.8594,130.625 564.625,130.8906 Q564.3906,131.1563 564.0156,131.1563 Q563.6719,131.1563 563.4688,130.9531 Q563.2656,130.7656 563.1563,130.25 Q563.1094,129.8906 562.9219,129.7031 Q562.5938,129.3281 561.9844,129.1094 Q561.375,128.8906 560.75,128.8906 Q559.9844,128.8906 559.3438,129.2188 Q558.7188,129.5469 558.2188,130.2969 Q557.7344,131.0469 557.7344,132.0781 L557.7344,133.1719 Q557.7344,134.4063 558.625,135.2344 Q559.5156,136.0469 561.1094,136.0469 Q562.0469,136.0469 562.7031,135.7969 Q563.0938,135.6406 563.5156,135.2031 Q563.7813,134.9375 563.9219,134.8594 Q564.0781,134.7813 564.2813,134.7813 Q564.6094,134.7813 564.8594,135.0469 Q565.125,135.2969 565.125,135.6406 Q565.125,135.9844 564.7813,136.3906 Q564.2813,136.9688 563.4844,137.2969 Q562.4063,137.75 561.1094,137.75 Q559.5938,137.75 558.3906,137.125 Q557.4063,136.625 556.7188,135.5625 Q556.0313,134.4844 556.0313,133.2031 L556.0313,132.0469 Q556.0313,130.7188 556.6406,129.5781 Q557.2656,128.4219 558.3594,127.8125 Q559.4531,127.1875 560.6875,127.1875 Q561.4219,127.1875 562.0625,127.3594 Q562.7188,127.5156 563.2656,127.875 Z "/><text fill="#000000" font-family="sans-serif" font-size="12" lengthAdjust="spacingAndGlyphs" textLength="62" x="574.5" y="136.9102">Information</text><line style="stroke: #A80036; stroke-width: 1.5;" x1="546.5" x2="638.5" y1="148" y2="148"/><line style="stroke: #A80036; stroke-width: 1.5;" x1="546.5" x2="638.5" y1="156" y2="156"/><!--reverse link OICollection to ObjectInterest--><path d="M71.3197,67.9353 C78.4183,83.6113 86.6014,101.6823 92.9393,115.6784 " fill="none" id="OICollection&lt;-ObjectInterest" style="stroke: #A80036; stroke-width: 1.0;"/><polygon fill="#A80036" points="65.9153,56,64.7466,63.1158,70.8655,66.9314,72.0342,59.8156,65.9153,56" style="stroke: #A80036; stroke-width: 1.0;"/><!--link Photo to ObjectInterest--><path d="M157.528,56 C148.279,70.2096 136.237,88.7082 125.87,104.6344 " fill="none" id="Photo-&gt;ObjectInterest" style="stroke: #A80036; stroke-width: 1.0;"/><polygon fill="#A80036" points="118.681,115.6784,125.3067,112.8323,125.2279,105.6217,118.6022,108.4677,118.681,115.6784" style="stroke: #A80036; stroke-width: 1.0;"/><!--link User to UserCollection--><path d="M287.868,56 C281.427,69.9337 273.079,87.9914 265.816,103.7038 " fill="none" id="User-&gt;UserCollection" style="stroke: #A80036; stroke-width: 1.0;"/><polygon fill="#A80036" points="260.281,115.6784,266.4295,111.9106,265.3163,104.7859,259.1678,108.5537,260.281,115.6784" style="stroke: #A80036; stroke-width: 1.0;"/><!--reverse link User to Admin--><path d="M327.306,72.6557 C337.835,87.1498 349.399,103.0681 358.559,115.6784 " fill="none" id="User&lt;-Admin" style="stroke: #A80036; stroke-width: 1.0;"/><polygon fill="none" points="321.299,76.2958,315.208,56,332.626,68.0677,321.299,76.2958" style="stroke: #A80036; stroke-width: 1.0;"/><!--link User to ObjectInterest--><path d="M268.884,49.099 C236.175,66.8794 183.23,95.6595 146.077,115.8555 " fill="none" id="User-ObjectInterest" style="stroke: #A80036; stroke-width: 1.0;"/><!--link User to Filters--><path d="M328.058,50.504 C360.032,69.4382 410.897,99.559 444.244,119.3068 " fill="none" id="User-Filters" style="stroke: #A80036; stroke-width: 1.0;"/><!--reverse link InfoCollection to Information--><path d="M592.5,69.3383 C592.5,84.6813 592.5,102.098 592.5,115.6784 " fill="none" id="InfoCollection&lt;-Information" style="stroke: #A80036; stroke-width: 1.0;"/><polygon fill="#A80036" points="592.5,56,588.5,62,592.5,68,596.5,62,592.5,56" style="stroke: #A80036; stroke-width: 1.0;"/><!--
@startuml Entity Class Diagram
OICollection *- - ObjectInterest
Photo - -* ObjectInterest
User - -* UserCollection
User <|- - Admin
User - - ObjectInterest
User - - Filters
InfoCollection *- - Information
@enduml

PlantUML version 1.2019.09(Tue Aug 27 00:19:51 SGT 2019)
(GPL source distribution)
Java Runtime: Java(TM) SE Runtime Environment
JVM: Java HotSpot(TM) 64-Bit Server VM
Java Version: 12.0.2+10
Operating System: Windows 10
OS Version: 10.0
Default Encoding: Cp1252
Language: en
Country: SG
--></g></svg>