<?xml version="1.0" encoding="UTF-8" standalone="no"?><svg xmlns="http://www.w3.org/2000/svg" xmlns:xlink="http://www.w3.org/1999/xlink" contentScriptType="application/ecmascript" contentStyleType="text/css" height="947px" preserveAspectRatio="none" style="width:985px;height:947px;" version="1.1" viewBox="0 0 985 947" width="985px" zoomAndPan="magnify"><defs><filter height="300%" id="f1po5kwkxwzi3z" width="300%" x="-1" y="-1"><feGaussianBlur result="blurOut" stdDeviation="2.0"/><feColorMatrix in="blurOut" result="blurOut2" type="matrix" values="0 0 0 0 0 0 0 0 0 0 0 0 0 0 0 0 0 0 .4 0"/><feOffset dx="4.0" dy="4.0" in="blurOut2" result="blurOut3"/><feBlend in="SourceGraphic" in2="blurOut3" mode="normal"/></filter></defs><g><rect fill="#FFFFFF" filter="url(#f1po5kwkxwzi3z)" height="720.5156" style="stroke: #A80036; stroke-width: 1.0;" width="10" x="131.5" y="119.9609"/><rect fill="#FFFFFF" filter="url(#f1po5kwkxwzi3z)" height="676.1641" style="stroke: #A80036; stroke-width: 1.0;" width="10" x="260.5" y="150.3125"/><rect fill="#FFFFFF" filter="url(#f1po5kwkxwzi3z)" height="25" style="stroke: #A80036; stroke-width: 1.0;" width="10" x="265.5" y="274.7188"/><rect fill="#FFFFFF" filter="url(#f1po5kwkxwzi3z)" height="25" style="stroke: #A80036; stroke-width: 1.0;" width="10" x="265.5" y="421.6094"/><rect fill="#FFFFFF" filter="url(#f1po5kwkxwzi3z)" height="30.3516" style="stroke: #A80036; stroke-width: 1.0;" width="10" x="426.5" y="352.9063"/><rect fill="#FFFFFF" filter="url(#f1po5kwkxwzi3z)" height="107.0547" style="stroke: #A80036; stroke-width: 1.0;" width="10" x="519" y="490.9609"/><rect fill="#FFFFFF" filter="url(#f1po5kwkxwzi3z)" height="14" style="stroke: #A80036; stroke-width: 1.0;" width="10" x="649" y="546.6641"/><rect fill="#FFFFFF" filter="url(#f1po5kwkxwzi3z)" height="107.0547" style="stroke: #A80036; stroke-width: 1.0;" width="10" x="751.5" y="628.3672"/><rect fill="#FFFFFF" filter="url(#f1po5kwkxwzi3z)" height="14" style="stroke: #A80036; stroke-width: 1.0;" width="10" x="881.5" y="684.0703"/><rect fill="#FFFFFF" filter="url(#f1po5kwkxwzi3z)" height="30.3516" style="stroke: #A80036; stroke-width: 1.0;" width="10" x="952" y="765.7734"/><rect fill="#FFFFFF" filter="url(#f1po5kwkxwzi3z)" height="296.2969" style="stroke: #000000; stroke-width: 2.0;" width="470" x="13" y="165.3125"/><rect fill="#FFFFFF" height="146.8906" style="stroke: none; stroke-width: 1.0;" width="470" x="13" y="314.7188"/><rect fill="#FFFFFF" filter="url(#f1po5kwkxwzi3z)" height="62.7031" style="stroke: #000000; stroke-width: 2.0;" width="238" x="473" y="505.9609"/><rect fill="#FFFFFF" filter="url(#f1po5kwkxwzi3z)" height="62.7031" style="stroke: #000000; stroke-width: 2.0;" width="233.5" x="701" y="643.3672"/><line style="stroke: #A80036; stroke-width: 1.0; stroke-dasharray: 5.0,5.0;" x1="40" x2="40" y1="87.6094" y2="858.4766"/><line style="stroke: #A80036; stroke-width: 1.0; stroke-dasharray: 5.0,5.0;" x1="136" x2="136" y1="87.6094" y2="858.4766"/><line style="stroke: #A80036; stroke-width: 1.0; stroke-dasharray: 5.0,5.0;" x1="265" x2="265" y1="87.6094" y2="858.4766"/><line style="stroke: #A80036; stroke-width: 1.0; stroke-dasharray: 5.0,5.0;" x1="431" x2="431" y1="87.6094" y2="858.4766"/><line style="stroke: #A80036; stroke-width: 1.0; stroke-dasharray: 5.0,5.0;" x1="524" x2="524" y1="87.6094" y2="858.4766"/><line style="stroke: #A80036; stroke-width: 1.0; stroke-dasharray: 5.0,5.0;" x1="654" x2="654" y1="87.6094" y2="858.4766"/><line style="stroke: #A80036; stroke-width: 1.0; stroke-dasharray: 5.0,5.0;" x1="756" x2="756" y1="87.6094" y2="858.4766"/><line style="stroke: #A80036; stroke-width: 1.0; stroke-dasharray: 5.0,5.0;" x1="886.5" x2="886.5" y1="87.6094" y2="858.4766"/><line style="stroke: #A80036; stroke-width: 1.0; stroke-dasharray: 5.0,5.0;" x1="956.5" x2="956.5" y1="87.6094" y2="858.4766"/><text fill="#000000" font-family="sans-serif" font-size="14" lengthAdjust="spacingAndGlyphs" textLength="29" x="23" y="84.5332">User</text><ellipse cx="40.5" cy="13" fill="#FEFECE" filter="url(#f1po5kwkxwzi3z)" rx="8" ry="8" style="stroke: #A80036; stroke-width: 2.0;"/><path d="M40.5,21 L40.5,48 M27.5,29 L53.5,29 M40.5,48 L27.5,63 M40.5,48 L53.5,63 " fill="none" filter="url(#f1po5kwkxwzi3z)" style="stroke: #A80036; stroke-width: 2.0;"/><text fill="#000000" font-family="sans-serif" font-size="14" lengthAdjust="spacingAndGlyphs" textLength="29" x="23" y="872.0098">User</text><ellipse cx="40.5" cy="885.0859" fill="#FEFECE" filter="url(#f1po5kwkxwzi3z)" rx="8" ry="8" style="stroke: #A80036; stroke-width: 2.0;"/><path d="M40.5,893.0859 L40.5,920.0859 M27.5,901.0859 L53.5,901.0859 M40.5,920.0859 L27.5,935.0859 M40.5,920.0859 L53.5,935.0859 " fill="none" filter="url(#f1po5kwkxwzi3z)" style="stroke: #A80036; stroke-width: 2.0;"/><text fill="#000000" font-family="sans-serif" font-size="14" lengthAdjust="spacingAndGlyphs" textLength="73" x="97" y="84.5332">MapDisplay</text><ellipse cx="136.5" cy="54" fill="#FEFECE" filter="url(#f1po5kwkxwzi3z)" rx="12" ry="12" style="stroke: #A80036; stroke-width: 2.0;"/><polygon fill="#A80036" points="132.5,42,138.5,37,136.5,42,138.5,47,132.5,42" style="stroke: #A80036; stroke-width: 1.0;"/><text fill="#000000" font-family="sans-serif" font-size="14" lengthAdjust="spacingAndGlyphs" textLength="73" x="97" y="872.0098">MapDisplay</text><ellipse cx="136.5" cy="891.0859" fill="#FEFECE" filter="url(#f1po5kwkxwzi3z)" rx="12" ry="12" style="stroke: #A80036; stroke-width: 2.0;"/><polygon fill="#A80036" points="132.5,879.0859,138.5,874.0859,136.5,879.0859,138.5,884.0859,132.5,879.0859" style="stroke: #A80036; stroke-width: 1.0;"/><text fill="#000000" font-family="sans-serif" font-size="14" lengthAdjust="spacingAndGlyphs" textLength="91" x="217" y="84.5332">GetNearbyInfo</text><ellipse cx="265.5" cy="54" fill="#FEFECE" filter="url(#f1po5kwkxwzi3z)" rx="12" ry="12" style="stroke: #A80036; stroke-width: 2.0;"/><polygon fill="#A80036" points="261.5,42,267.5,37,265.5,42,267.5,47,261.5,42" style="stroke: #A80036; stroke-width: 1.0;"/><text fill="#000000" font-family="sans-serif" font-size="14" lengthAdjust="spacingAndGlyphs" textLength="91" x="217" y="872.0098">GetNearbyInfo</text><ellipse cx="265.5" cy="891.0859" fill="#FEFECE" filter="url(#f1po5kwkxwzi3z)" rx="12" ry="12" style="stroke: #A80036; stroke-width: 2.0;"/><polygon fill="#A80036" points="261.5,879.0859,267.5,874.0859,265.5,879.0859,267.5,884.0859,261.5,879.0859" style="stroke: #A80036; stroke-width: 1.0;"/><text fill="#000000" font-family="sans-serif" font-size="14" lengthAdjust="spacingAndGlyphs" textLength="77" x="390" y="84.5332">GetLocation</text><ellipse cx="431.5" cy="54" fill="#FEFECE" filter="url(#f1po5kwkxwzi3z)" rx="12" ry="12" style="stroke: #A80036; stroke-width: 2.0;"/><polygon fill="#A80036" points="427.5,42,433.5,37,431.5,42,433.5,47,427.5,42" style="stroke: #A80036; stroke-width: 1.0;"/><text fill="#000000" font-family="sans-serif" font-size="14" lengthAdjust="spacingAndGlyphs" textLength="77" x="390" y="872.0098">GetLocation</text><ellipse cx="431.5" cy="891.0859" fill="#FEFECE" filter="url(#f1po5kwkxwzi3z)" rx="12" ry="12" style="stroke: #A80036; stroke-width: 2.0;"/><polygon fill="#A80036" points="427.5,879.0859,433.5,874.0859,431.5,879.0859,433.5,884.0859,427.5,879.0859" style="stroke: #A80036; stroke-width: 1.0;"/><text fill="#000000" font-family="sans-serif" font-size="14" lengthAdjust="spacingAndGlyphs" textLength="76" x="483" y="84.5332">OICollection</text><ellipse cx="524" cy="54" fill="#FEFECE" filter="url(#f1po5kwkxwzi3z)" rx="12" ry="12" style="stroke: #A80036; stroke-width: 2.0;"/><line style="stroke: #A80036; stroke-width: 2.0;" x1="512" x2="536" y1="68" y2="68"/><text fill="#000000" font-family="sans-serif" font-size="14" lengthAdjust="spacingAndGlyphs" textLength="76" x="483" y="872.0098">OICollection</text><ellipse cx="524" cy="891.0859" fill="#FEFECE" filter="url(#f1po5kwkxwzi3z)" rx="12" ry="12" style="stroke: #A80036; stroke-width: 2.0;"/><line style="stroke: #A80036; stroke-width: 2.0;" x1="512" x2="536" y1="905.0859" y2="905.0859"/><text fill="#000000" font-family="sans-serif" font-size="14" lengthAdjust="spacingAndGlyphs" textLength="88" x="607" y="84.5332">ObjectInterest</text><ellipse cx="654" cy="54" fill="#FEFECE" filter="url(#f1po5kwkxwzi3z)" rx="12" ry="12" style="stroke: #A80036; stroke-width: 2.0;"/><line style="stroke: #A80036; stroke-width: 2.0;" x1="642" x2="666" y1="68" y2="68"/><text fill="#000000" font-family="sans-serif" font-size="14" lengthAdjust="spacingAndGlyphs" textLength="88" x="607" y="872.0098">ObjectInterest</text><ellipse cx="654" cy="891.0859" fill="#FEFECE" filter="url(#f1po5kwkxwzi3z)" rx="12" ry="12" style="stroke: #A80036; stroke-width: 2.0;"/><line style="stroke: #A80036; stroke-width: 2.0;" x1="642" x2="666" y1="905.0859" y2="905.0859"/><text fill="#000000" font-family="sans-serif" font-size="14" lengthAdjust="spacingAndGlyphs" textLength="85" x="711" y="84.5332">InfoCollection</text><ellipse cx="756.5" cy="54" fill="#FEFECE" filter="url(#f1po5kwkxwzi3z)" rx="12" ry="12" style="stroke: #A80036; stroke-width: 2.0;"/><line style="stroke: #A80036; stroke-width: 2.0;" x1="744.5" x2="768.5" y1="68" y2="68"/><text fill="#000000" font-family="sans-serif" font-size="14" lengthAdjust="spacingAndGlyphs" textLength="85" x="711" y="872.0098">InfoCollection</text><ellipse cx="756.5" cy="891.0859" fill="#FEFECE" filter="url(#f1po5kwkxwzi3z)" rx="12" ry="12" style="stroke: #A80036; stroke-width: 2.0;"/><line style="stroke: #A80036; stroke-width: 2.0;" x1="744.5" x2="768.5" y1="905.0859" y2="905.0859"/><text fill="#000000" font-family="sans-serif" font-size="14" lengthAdjust="spacingAndGlyphs" textLength="70" x="848.5" y="84.5332">Information</text><ellipse cx="886.5" cy="54" fill="#FEFECE" filter="url(#f1po5kwkxwzi3z)" rx="12" ry="12" style="stroke: #A80036; stroke-width: 2.0;"/><line style="stroke: #A80036; stroke-width: 2.0;" x1="874.5" x2="898.5" y1="68" y2="68"/><text fill="#000000" font-family="sans-serif" font-size="14" lengthAdjust="spacingAndGlyphs" textLength="70" x="848.5" y="872.0098">Information</text><ellipse cx="886.5" cy="891.0859" fill="#FEFECE" filter="url(#f1po5kwkxwzi3z)" rx="12" ry="12" style="stroke: #A80036; stroke-width: 2.0;"/><line style="stroke: #A80036; stroke-width: 2.0;" x1="874.5" x2="898.5" y1="905.0859" y2="905.0859"/><text fill="#000000" font-family="sans-serif" font-size="14" lengthAdjust="spacingAndGlyphs" textLength="39" x="934.5" y="84.5332">Filters</text><ellipse cx="957" cy="54" fill="#FEFECE" filter="url(#f1po5kwkxwzi3z)" rx="12" ry="12" style="stroke: #A80036; stroke-width: 2.0;"/><line style="stroke: #A80036; stroke-width: 2.0;" x1="945" x2="969" y1="68" y2="68"/><text fill="#000000" font-family="sans-serif" font-size="14" lengthAdjust="spacingAndGlyphs" textLength="39" x="934.5" y="872.0098">Filters</text><ellipse cx="957" cy="891.0859" fill="#FEFECE" filter="url(#f1po5kwkxwzi3z)" rx="12" ry="12" style="stroke: #A80036; stroke-width: 2.0;"/><line style="stroke: #A80036; stroke-width: 2.0;" x1="945" x2="969" y1="905.0859" y2="905.0859"/><rect fill="#FFFFFF" filter="url(#f1po5kwkxwzi3z)" height="720.5156" style="stroke: #A80036; stroke-width: 1.0;" width="10" x="131.5" y="119.9609"/><rect fill="#FFFFFF" filter="url(#f1po5kwkxwzi3z)" height="676.1641" style="stroke: #A80036; stroke-width: 1.0;" width="10" x="260.5" y="150.3125"/><rect fill="#FFFFFF" filter="url(#f1po5kwkxwzi3z)" height="25" style="stroke: #A80036; stroke-width: 1.0;" width="10" x="265.5" y="274.7188"/><rect fill="#FFFFFF" filter="url(#f1po5kwkxwzi3z)" height="25" style="stroke: #A80036; stroke-width: 1.0;" width="10" x="265.5" y="421.6094"/><rect fill="#FFFFFF" filter="url(#f1po5kwkxwzi3z)" height="30.3516" style="stroke: #A80036; stroke-width: 1.0;" width="10" x="426.5" y="352.9063"/><rect fill="#FFFFFF" filter="url(#f1po5kwkxwzi3z)" height="107.0547" style="stroke: #A80036; stroke-width: 1.0;" width="10" x="519" y="490.9609"/><rect fill="#FFFFFF" filter="url(#f1po5kwkxwzi3z)" height="14" style="stroke: #A80036; stroke-width: 1.0;" width="10" x="649" y="546.6641"/><rect fill="#FFFFFF" filter="url(#f1po5kwkxwzi3z)" height="107.0547" style="stroke: #A80036; stroke-width: 1.0;" width="10" x="751.5" y="628.3672"/><rect fill="#FFFFFF" filter="url(#f1po5kwkxwzi3z)" height="14" style="stroke: #A80036; stroke-width: 1.0;" width="10" x="881.5" y="684.0703"/><rect fill="#FFFFFF" filter="url(#f1po5kwkxwzi3z)" height="30.3516" style="stroke: #A80036; stroke-width: 1.0;" width="10" x="952" y="765.7734"/><polygon fill="#A80036" points="119.5,115.9609,129.5,119.9609,119.5,123.9609,123.5,119.9609" style="stroke: #A80036; stroke-width: 1.0;"/><line style="stroke: #A80036; stroke-width: 1.0;" x1="40.5" x2="125.5" y1="119.9609" y2="119.9609"/><text fill="#000000" font-family="sans-serif" font-size="13" lengthAdjust="spacingAndGlyphs" textLength="50" x="47.5" y="115.1045">see map</text><polygon fill="#A80036" points="248.5,146.3125,258.5,150.3125,248.5,154.3125,252.5,150.3125" style="stroke: #A80036; stroke-width: 1.0;"/><line style="stroke: #A80036; stroke-width: 1.0;" x1="141.5" x2="254.5" y1="150.3125" y2="150.3125"/><text fill="#000000" font-family="sans-serif" font-size="13" lengthAdjust="spacingAndGlyphs" textLength="88" x="148.5" y="145.4561">request OI+Info</text><path d="M13,165.3125 L74,165.3125 L74,173.3125 L64,183.3125 L13,183.3125 L13,165.3125 " fill="#EEEEEE" style="stroke: #000000; stroke-width: 1.0;"/><rect fill="none" height="296.2969" style="stroke: #000000; stroke-width: 2.0;" width="470" x="13" y="165.3125"/><text fill="#000000" font-family="sans-serif" font-size="13" font-weight="bold" lengthAdjust="spacingAndGlyphs" textLength="16" x="28" y="179.8076">alt</text><text fill="#000000" font-family="sans-serif" font-size="11" font-weight="bold" lengthAdjust="spacingAndGlyphs" textLength="73" x="89" y="178.7314">[select point]</text><polygon fill="#A80036" points="119.5,202.0156,129.5,206.0156,119.5,210.0156,123.5,206.0156" style="stroke: #A80036; stroke-width: 1.0;"/><line style="stroke: #A80036; stroke-width: 1.0;" x1="40.5" x2="125.5" y1="206.0156" y2="206.0156"/><text fill="#000000" font-family="sans-serif" font-size="13" lengthAdjust="spacingAndGlyphs" textLength="67" x="47.5" y="201.1592">select point</text><polygon fill="#A80036" points="248.5,232.3672,258.5,236.3672,248.5,240.3672,252.5,236.3672" style="stroke: #A80036; stroke-width: 1.0;"/><line style="stroke: #A80036; stroke-width: 1.0;" x1="141.5" x2="254.5" y1="236.3672" y2="236.3672"/><text fill="#000000" font-family="sans-serif" font-size="13" lengthAdjust="spacingAndGlyphs" textLength="71" x="148.5" y="231.5107">give location</text><line style="stroke: #A80036; stroke-width: 1.0;" x1="270.5" x2="317.5" y1="261.7188" y2="261.7188"/><line style="stroke: #A80036; stroke-width: 1.0;" x1="317.5" x2="317.5" y1="261.7188" y2="274.7188"/><line style="stroke: #A80036; stroke-width: 1.0;" x1="276.5" x2="317.5" y1="274.7188" y2="274.7188"/><polygon fill="#A80036" points="286.5,270.7188,276.5,274.7188,286.5,278.7188,282.5,274.7188" style="stroke: #A80036; stroke-width: 1.0;"/><text fill="#000000" font-family="sans-serif" font-size="13" lengthAdjust="spacingAndGlyphs" textLength="142" x="282.5" y="256.8623">location = selected point</text><line style="stroke: #A80036; stroke-width: 1.0; stroke-dasharray: 2.0,2.0;" x1="275.5" x2="317.5" y1="298.7188" y2="298.7188"/><line style="stroke: #A80036; stroke-width: 1.0; stroke-dasharray: 2.0,2.0;" x1="317.5" x2="317.5" y1="298.7188" y2="311.7188"/><line style="stroke: #A80036; stroke-width: 1.0; stroke-dasharray: 2.0,2.0;" x1="270.5" x2="317.5" y1="311.7188" y2="311.7188"/><polygon fill="#A80036" points="280.5,307.7188,270.5,311.7188,280.5,315.7188,276.5,311.7188" style="stroke: #A80036; stroke-width: 1.0;"/><line style="stroke: #000000; stroke-width: 1.0; stroke-dasharray: 2.0,2.0;" x1="13" x2="483" y1="315.7188" y2="315.7188"/><text fill="#000000" font-family="sans-serif" font-size="11" font-weight="bold" lengthAdjust="spacingAndGlyphs" textLength="114" x="18" y="327.1377">[use user's location]</text><polygon fill="#A80036" points="414.5,348.9063,424.5,352.9063,414.5,356.9063,418.5,352.9063" style="stroke: #A80036; stroke-width: 1.0;"/><line style="stroke: #A80036; stroke-width: 1.0;" x1="270.5" x2="420.5" y1="352.9063" y2="352.9063"/><text fill="#000000" font-family="sans-serif" font-size="13" lengthAdjust="spacingAndGlyphs" textLength="92" x="277.5" y="348.0498">request location</text><polygon fill="#A80036" points="281.5,379.2578,271.5,383.2578,281.5,387.2578,277.5,383.2578" style="stroke: #A80036; stroke-width: 1.0;"/><line style="stroke: #A80036; stroke-width: 1.0; stroke-dasharray: 2.0,2.0;" x1="275.5" x2="430.5" y1="383.2578" y2="383.2578"/><text fill="#000000" font-family="sans-serif" font-size="13" lengthAdjust="spacingAndGlyphs" textLength="74" x="287.5" y="378.4014">userLocation</text><line style="stroke: #A80036; stroke-width: 1.0;" x1="270.5" x2="317.5" y1="408.6094" y2="408.6094"/><line style="stroke: #A80036; stroke-width: 1.0;" x1="317.5" x2="317.5" y1="408.6094" y2="421.6094"/><line style="stroke: #A80036; stroke-width: 1.0;" x1="276.5" x2="317.5" y1="421.6094" y2="421.6094"/><polygon fill="#A80036" points="286.5,417.6094,276.5,421.6094,286.5,425.6094,282.5,421.6094" style="stroke: #A80036; stroke-width: 1.0;"/><text fill="#000000" font-family="sans-serif" font-size="13" lengthAdjust="spacingAndGlyphs" textLength="135" x="282.5" y="403.7529">location = userLocation</text><line style="stroke: #A80036; stroke-width: 1.0; stroke-dasharray: 2.0,2.0;" x1="275.5" x2="317.5" y1="445.6094" y2="445.6094"/><line style="stroke: #A80036; stroke-width: 1.0; stroke-dasharray: 2.0,2.0;" x1="317.5" x2="317.5" y1="445.6094" y2="458.6094"/><line style="stroke: #A80036; stroke-width: 1.0; stroke-dasharray: 2.0,2.0;" x1="270.5" x2="317.5" y1="458.6094" y2="458.6094"/><polygon fill="#A80036" points="280.5,454.6094,270.5,458.6094,280.5,462.6094,276.5,458.6094" style="stroke: #A80036; stroke-width: 1.0;"/><polygon fill="#A80036" points="507,486.9609,517,490.9609,507,494.9609,511,490.9609" style="stroke: #A80036; stroke-width: 1.0;"/><line style="stroke: #A80036; stroke-width: 1.0;" x1="270.5" x2="513" y1="490.9609" y2="490.9609"/><text fill="#000000" font-family="sans-serif" font-size="13" lengthAdjust="spacingAndGlyphs" textLength="45" x="277.5" y="486.1045">location</text><path d="M473,505.9609 L546,505.9609 L546,513.9609 L536,523.9609 L473,523.9609 L473,505.9609 " fill="#EEEEEE" style="stroke: #000000; stroke-width: 1.0;"/><rect fill="none" height="62.7031" style="stroke: #000000; stroke-width: 2.0;" width="238" x="473" y="505.9609"/><text fill="#000000" font-family="sans-serif" font-size="13" font-weight="bold" lengthAdjust="spacingAndGlyphs" textLength="28" x="488" y="520.4561">loop</text><text fill="#000000" font-family="sans-serif" font-size="11" font-weight="bold" lengthAdjust="spacingAndGlyphs" textLength="53" x="561" y="519.3799">[for all OI]</text><polygon fill="#A80036" points="637,542.6641,647,546.6641,637,550.6641,641,546.6641" style="stroke: #A80036; stroke-width: 1.0;"/><line style="stroke: #A80036; stroke-width: 1.0;" x1="529" x2="643" y1="546.6641" y2="546.6641"/><text fill="#000000" font-family="sans-serif" font-size="13" lengthAdjust="spacingAndGlyphs" textLength="101" x="536" y="541.8076">check within 5km</text><polygon fill="#A80036" points="540,556.6641,530,560.6641,540,564.6641,536,560.6641" style="stroke: #A80036; stroke-width: 1.0;"/><line style="stroke: #A80036; stroke-width: 1.0; stroke-dasharray: 2.0,2.0;" x1="534" x2="653" y1="560.6641" y2="560.6641"/><polygon fill="#A80036" points="281.5,594.0156,271.5,598.0156,281.5,602.0156,277.5,598.0156" style="stroke: #A80036; stroke-width: 1.0;"/><line style="stroke: #A80036; stroke-width: 1.0; stroke-dasharray: 2.0,2.0;" x1="275.5" x2="523" y1="598.0156" y2="598.0156"/><text fill="#000000" font-family="sans-serif" font-size="13" lengthAdjust="spacingAndGlyphs" textLength="34" x="287.5" y="593.1592">OI list</text><polygon fill="#A80036" points="739.5,624.3672,749.5,628.3672,739.5,632.3672,743.5,628.3672" style="stroke: #A80036; stroke-width: 1.0;"/><line style="stroke: #A80036; stroke-width: 1.0;" x1="270.5" x2="745.5" y1="628.3672" y2="628.3672"/><text fill="#000000" font-family="sans-serif" font-size="13" lengthAdjust="spacingAndGlyphs" textLength="74" x="277.5" y="623.5107">userLocation</text><path d="M701,643.3672 L774,643.3672 L774,651.3672 L764,661.3672 L701,661.3672 L701,643.3672 " fill="#EEEEEE" style="stroke: #000000; stroke-width: 1.0;"/><rect fill="none" height="62.7031" style="stroke: #000000; stroke-width: 2.0;" width="233.5" x="701" y="643.3672"/><text fill="#000000" font-family="sans-serif" font-size="13" font-weight="bold" lengthAdjust="spacingAndGlyphs" textLength="28" x="716" y="657.8623">loop</text><text fill="#000000" font-family="sans-serif" font-size="11" font-weight="bold" lengthAdjust="spacingAndGlyphs" textLength="106" x="789" y="656.7861">[for all Information]</text><polygon fill="#A80036" points="869.5,680.0703,879.5,684.0703,869.5,688.0703,873.5,684.0703" style="stroke: #A80036; stroke-width: 1.0;"/><line style="stroke: #A80036; stroke-width: 1.0;" x1="761.5" x2="875.5" y1="684.0703" y2="684.0703"/><text fill="#000000" font-family="sans-serif" font-size="13" lengthAdjust="spacingAndGlyphs" textLength="101" x="768.5" y="679.2139">check within 5km</text><polygon fill="#A80036" points="772.5,694.0703,762.5,698.0703,772.5,702.0703,768.5,698.0703" style="stroke: #A80036; stroke-width: 1.0;"/><line style="stroke: #A80036; stroke-width: 1.0; stroke-dasharray: 2.0,2.0;" x1="766.5" x2="885.5" y1="698.0703" y2="698.0703"/><polygon fill="#A80036" points="281.5,731.4219,271.5,735.4219,281.5,739.4219,277.5,735.4219" style="stroke: #A80036; stroke-width: 1.0;"/><line style="stroke: #A80036; stroke-width: 1.0; stroke-dasharray: 2.0,2.0;" x1="275.5" x2="755.5" y1="735.4219" y2="735.4219"/><text fill="#000000" font-family="sans-serif" font-size="13" lengthAdjust="spacingAndGlyphs" textLength="41" x="287.5" y="730.5654">Info list</text><polygon fill="#A80036" points="940,761.7734,950,765.7734,940,769.7734,944,765.7734" style="stroke: #A80036; stroke-width: 1.0;"/><line style="stroke: #A80036; stroke-width: 1.0;" x1="270.5" x2="946" y1="765.7734" y2="765.7734"/><text fill="#000000" font-family="sans-serif" font-size="13" lengthAdjust="spacingAndGlyphs" textLength="61" x="277.5" y="760.917">Get Filters</text><polygon fill="#A80036" points="281.5,792.125,271.5,796.125,281.5,800.125,277.5,796.125" style="stroke: #A80036; stroke-width: 1.0;"/><line style="stroke: #A80036; stroke-width: 1.0; stroke-dasharray: 2.0,2.0;" x1="275.5" x2="956" y1="796.125" y2="796.125"/><text fill="#000000" font-family="sans-serif" font-size="13" lengthAdjust="spacingAndGlyphs" textLength="36" x="287.5" y="791.2686">Filters</text><polygon fill="#A80036" points="152.5,822.4766,142.5,826.4766,152.5,830.4766,148.5,826.4766" style="stroke: #A80036; stroke-width: 1.0;"/><line style="stroke: #A80036; stroke-width: 1.0; stroke-dasharray: 2.0,2.0;" x1="146.5" x2="264.5" y1="826.4766" y2="826.4766"/><text fill="#000000" font-family="sans-serif" font-size="13" lengthAdjust="spacingAndGlyphs" textLength="95" x="158.5" y="821.6201">OI+Info in Filters</text><polygon fill="#A80036" points="51.5,836.4766,41.5,840.4766,51.5,844.4766,47.5,840.4766" style="stroke: #A80036; stroke-width: 1.0;"/><line style="stroke: #A80036; stroke-width: 1.0; stroke-dasharray: 2.0,2.0;" x1="45.5" x2="135.5" y1="840.4766" y2="840.4766"/><!--
@startuml Sequence Diagram
actor User
control MapDisplay
control GetNearbyInfo
control GetLocation
entity OICollection
entity ObjectInterest
entity InfoCollection
entity Information
entity Filters

User -> MapDisplay: see map
activate MapDisplay
MapDisplay -> GetNearbyInfo: request OI+Info
activate GetNearbyInfo
alt select point
User -> MapDisplay: select point
MapDisplay -> GetNearbyInfo: give location
GetNearbyInfo -> GetNearbyInfo: location = selected point
activate GetNearbyInfo
GetNearbyInfo - -> GetNearbyInfo
deactivate GetNearbyInfo
else use user's location
GetNearbyInfo -> GetLocation: request location
activate GetLocation
GetLocation - -> GetNearbyInfo: userLocation
deactivate GetLocation
GetNearbyInfo -> GetNearbyInfo: location = userLocation
activate GetNearbyInfo
GetNearbyInfo - -> GetNearbyInfo
deactivate GetNearbyInfo
end
GetNearbyInfo -> OICollection: location
activate OICollection
loop for all OI
	OICollection -> ObjectInterest: check within 5km
	activate ObjectInterest
	ObjectInterest - -> OICollection
	deactivate ObjectInterest
end
OICollection - -> GetNearbyInfo: OI list
deactivate OICollection
GetNearbyInfo -> InfoCollection: userLocation
activate InfoCollection
loop for all Information
	InfoCollection -> Information: check within 5km
	activate Information
	Information - -> InfoCollection
	deactivate Information
end
InfoCollection - -> GetNearbyInfo: Info list
deactivate InfoCollection
GetNearbyInfo -> Filters: Get Filters
activate Filters
Filters - -> GetNearbyInfo: Filters
deactivate Filters
MapDisplay <- - GetNearbyInfo : OI+Info in Filters
deactivate GetNearbyInfo
MapDisplay - -> User
deactivate MapDisplay
@enduml

PlantUML version 1.2019.09(Tue Aug 27 00:19:51 SGT 2019)
(GPL source distribution)
Java Runtime: Java(TM) SE Runtime Environment
JVM: Java HotSpot(TM) 64-Bit Server VM
Java Version: 12.0.2+10
Operating System: Windows 10
OS Version: 10.0
Default Encoding: Cp1252
Language: en
Country: SG
--></g></svg>