<?xml version="1.0" encoding="UTF-8" standalone="no"?><svg xmlns="http://www.w3.org/2000/svg" xmlns:xlink="http://www.w3.org/1999/xlink" contentScriptType="application/ecmascript" contentStyleType="text/css" height="511px" preserveAspectRatio="none" style="width:713px;height:511px;" version="1.1" viewBox="0 0 713 511" width="713px" zoomAndPan="magnify"><defs><filter height="300%" id="f5ntlod2fd6yh" width="300%" x="-1" y="-1"><feGaussianBlur result="blurOut" stdDeviation="2.0"/><feColorMatrix in="blurOut" result="blurOut2" type="matrix" values="0 0 0 0 0 0 0 0 0 0 0 0 0 0 0 0 0 0 .4 0"/><feOffset dx="4.0" dy="4.0" in="blurOut2" result="blurOut3"/><feBlend in="SourceGraphic" in2="blurOut3" mode="normal"/></filter></defs><g><rect fill="#FFFFFF" filter="url(#f5ntlod2fd6yh)" height="62.7031" style="stroke: #000000; stroke-width: 2.0;" width="233" x="250.5" y="174.6641"/><rect fill="#FFFFFF" filter="url(#f5ntlod2fd6yh)" height="62.7031" style="stroke: #000000; stroke-width: 2.0;" width="228.5" x="473.5" y="312.0703"/><line style="stroke: #A80036; stroke-width: 1.0; stroke-dasharray: 5.0,5.0;" x1="92.5" x2="92.5" y1="52.6094" y2="452.4766"/><line style="stroke: #A80036; stroke-width: 1.0; stroke-dasharray: 5.0,5.0;" x1="208.5" x2="208.5" y1="52.6094" y2="452.4766"/><line style="stroke: #A80036; stroke-width: 1.0; stroke-dasharray: 5.0,5.0;" x1="301.5" x2="301.5" y1="52.6094" y2="452.4766"/><line style="stroke: #A80036; stroke-width: 1.0; stroke-dasharray: 5.0,5.0;" x1="426.5" x2="426.5" y1="52.6094" y2="452.4766"/><line style="stroke: #A80036; stroke-width: 1.0; stroke-dasharray: 5.0,5.0;" x1="528.5" x2="528.5" y1="52.6094" y2="452.4766"/><line style="stroke: #A80036; stroke-width: 1.0; stroke-dasharray: 5.0,5.0;" x1="654" x2="654" y1="52.6094" y2="452.4766"/><text fill="#000000" font-family="sans-serif" font-size="14" lengthAdjust="spacingAndGlyphs" textLength="91" x="44.5" y="49.5332">GetNearbyInfo</text><ellipse cx="93" cy="19" fill="#FEFECE" filter="url(#f5ntlod2fd6yh)" rx="12" ry="12" style="stroke: #A80036; stroke-width: 2.0;"/><polygon fill="#A80036" points="89,7,95,2,93,7,95,12,89,7" style="stroke: #A80036; stroke-width: 1.0;"/><text fill="#000000" font-family="sans-serif" font-size="14" lengthAdjust="spacingAndGlyphs" textLength="91" x="44.5" y="466.0098">GetNearbyInfo</text><ellipse cx="93" cy="485.0859" fill="#FEFECE" filter="url(#f5ntlod2fd6yh)" rx="12" ry="12" style="stroke: #A80036; stroke-width: 2.0;"/><polygon fill="#A80036" points="89,473.0859,95,468.0859,93,473.0859,95,478.0859,89,473.0859" style="stroke: #A80036; stroke-width: 1.0;"/><text fill="#000000" font-family="sans-serif" font-size="14" lengthAdjust="spacingAndGlyphs" textLength="77" x="167.5" y="49.5332">GetLocation</text><ellipse cx="209" cy="19" fill="#FEFECE" filter="url(#f5ntlod2fd6yh)" rx="12" ry="12" style="stroke: #A80036; stroke-width: 2.0;"/><polygon fill="#A80036" points="205,7,211,2,209,7,211,12,205,7" style="stroke: #A80036; stroke-width: 1.0;"/><text fill="#000000" font-family="sans-serif" font-size="14" lengthAdjust="spacingAndGlyphs" textLength="77" x="167.5" y="466.0098">GetLocation</text><ellipse cx="209" cy="485.0859" fill="#FEFECE" filter="url(#f5ntlod2fd6yh)" rx="12" ry="12" style="stroke: #A80036; stroke-width: 2.0;"/><polygon fill="#A80036" points="205,473.0859,211,468.0859,209,473.0859,211,478.0859,205,473.0859" style="stroke: #A80036; stroke-width: 1.0;"/><text fill="#000000" font-family="sans-serif" font-size="14" lengthAdjust="spacingAndGlyphs" textLength="76" x="260.5" y="49.5332">OICollection</text><ellipse cx="301.5" cy="19" fill="#FEFECE" filter="url(#f5ntlod2fd6yh)" rx="12" ry="12" style="stroke: #A80036; stroke-width: 2.0;"/><line style="stroke: #A80036; stroke-width: 2.0;" x1="289.5" x2="313.5" y1="33" y2="33"/><text fill="#000000" font-family="sans-serif" font-size="14" lengthAdjust="spacingAndGlyphs" textLength="76" x="260.5" y="466.0098">OICollection</text><ellipse cx="301.5" cy="485.0859" fill="#FEFECE" filter="url(#f5ntlod2fd6yh)" rx="12" ry="12" style="stroke: #A80036; stroke-width: 2.0;"/><line style="stroke: #A80036; stroke-width: 2.0;" x1="289.5" x2="313.5" y1="499.0859" y2="499.0859"/><text fill="#000000" font-family="sans-serif" font-size="14" lengthAdjust="spacingAndGlyphs" textLength="88" x="379.5" y="49.5332">ObjectInterest</text><ellipse cx="426.5" cy="19" fill="#FEFECE" filter="url(#f5ntlod2fd6yh)" rx="12" ry="12" style="stroke: #A80036; stroke-width: 2.0;"/><line style="stroke: #A80036; stroke-width: 2.0;" x1="414.5" x2="438.5" y1="33" y2="33"/><text fill="#000000" font-family="sans-serif" font-size="14" lengthAdjust="spacingAndGlyphs" textLength="88" x="379.5" y="466.0098">ObjectInterest</text><ellipse cx="426.5" cy="485.0859" fill="#FEFECE" filter="url(#f5ntlod2fd6yh)" rx="12" ry="12" style="stroke: #A80036; stroke-width: 2.0;"/><line style="stroke: #A80036; stroke-width: 2.0;" x1="414.5" x2="438.5" y1="499.0859" y2="499.0859"/><text fill="#000000" font-family="sans-serif" font-size="14" lengthAdjust="spacingAndGlyphs" textLength="85" x="483.5" y="49.5332">InfoCollection</text><ellipse cx="529" cy="19" fill="#FEFECE" filter="url(#f5ntlod2fd6yh)" rx="12" ry="12" style="stroke: #A80036; stroke-width: 2.0;"/><line style="stroke: #A80036; stroke-width: 2.0;" x1="517" x2="541" y1="33" y2="33"/><text fill="#000000" font-family="sans-serif" font-size="14" lengthAdjust="spacingAndGlyphs" textLength="85" x="483.5" y="466.0098">InfoCollection</text><ellipse cx="529" cy="485.0859" fill="#FEFECE" filter="url(#f5ntlod2fd6yh)" rx="12" ry="12" style="stroke: #A80036; stroke-width: 2.0;"/><line style="stroke: #A80036; stroke-width: 2.0;" x1="517" x2="541" y1="499.0859" y2="499.0859"/><text fill="#000000" font-family="sans-serif" font-size="14" lengthAdjust="spacingAndGlyphs" textLength="70" x="616" y="49.5332">Information</text><ellipse cx="654" cy="19" fill="#FEFECE" filter="url(#f5ntlod2fd6yh)" rx="12" ry="12" style="stroke: #A80036; stroke-width: 2.0;"/><line style="stroke: #A80036; stroke-width: 2.0;" x1="642" x2="666" y1="33" y2="33"/><text fill="#000000" font-family="sans-serif" font-size="14" lengthAdjust="spacingAndGlyphs" textLength="70" x="616" y="466.0098">Information</text><ellipse cx="654" cy="485.0859" fill="#FEFECE" filter="url(#f5ntlod2fd6yh)" rx="12" ry="12" style="stroke: #A80036; stroke-width: 2.0;"/><line style="stroke: #A80036; stroke-width: 2.0;" x1="642" x2="666" y1="499.0859" y2="499.0859"/><polygon fill="#A80036" points="81,64.6094,91,68.6094,81,72.6094,85,68.6094" style="stroke: #A80036; stroke-width: 1.0;"/><line style="stroke: #A80036; stroke-width: 1.0;" x1="3" x2="87" y1="68.6094" y2="68.6094"/><polygon fill="#A80036" points="197,94.9609,207,98.9609,197,102.9609,201,98.9609" style="stroke: #A80036; stroke-width: 1.0;"/><line style="stroke: #A80036; stroke-width: 1.0;" x1="93" x2="203" y1="98.9609" y2="98.9609"/><text fill="#000000" font-family="sans-serif" font-size="13" lengthAdjust="spacingAndGlyphs" textLength="92" x="100" y="94.1045">request location</text><polygon fill="#A80036" points="104,125.3125,94,129.3125,104,133.3125,100,129.3125" style="stroke: #A80036; stroke-width: 1.0;"/><line style="stroke: #A80036; stroke-width: 1.0; stroke-dasharray: 2.0,2.0;" x1="98" x2="208" y1="129.3125" y2="129.3125"/><text fill="#000000" font-family="sans-serif" font-size="13" lengthAdjust="spacingAndGlyphs" textLength="74" x="110" y="124.4561">userLocation</text><polygon fill="#A80036" points="289.5,155.6641,299.5,159.6641,289.5,163.6641,293.5,159.6641" style="stroke: #A80036; stroke-width: 1.0;"/><line style="stroke: #A80036; stroke-width: 1.0;" x1="93" x2="295.5" y1="159.6641" y2="159.6641"/><text fill="#000000" font-family="sans-serif" font-size="13" lengthAdjust="spacingAndGlyphs" textLength="74" x="100" y="154.8076">userLocation</text><path d="M250.5,174.6641 L323.5,174.6641 L323.5,182.6641 L313.5,192.6641 L250.5,192.6641 L250.5,174.6641 " fill="#EEEEEE" style="stroke: #000000; stroke-width: 1.0;"/><rect fill="none" height="62.7031" style="stroke: #000000; stroke-width: 2.0;" width="233" x="250.5" y="174.6641"/><text fill="#000000" font-family="sans-serif" font-size="13" font-weight="bold" lengthAdjust="spacingAndGlyphs" textLength="28" x="265.5" y="189.1592">loop</text><text fill="#000000" font-family="sans-serif" font-size="11" font-weight="bold" lengthAdjust="spacingAndGlyphs" textLength="53" x="338.5" y="188.083">[for all OI]</text><polygon fill="#A80036" points="414.5,211.3672,424.5,215.3672,414.5,219.3672,418.5,215.3672" style="stroke: #A80036; stroke-width: 1.0;"/><line style="stroke: #A80036; stroke-width: 1.0;" x1="301.5" x2="420.5" y1="215.3672" y2="215.3672"/><text fill="#000000" font-family="sans-serif" font-size="13" lengthAdjust="spacingAndGlyphs" textLength="101" x="308.5" y="210.5107">check within 5km</text><polygon fill="#A80036" points="312.5,225.3672,302.5,229.3672,312.5,233.3672,308.5,229.3672" style="stroke: #A80036; stroke-width: 1.0;"/><line style="stroke: #A80036; stroke-width: 1.0; stroke-dasharray: 2.0,2.0;" x1="306.5" x2="425.5" y1="229.3672" y2="229.3672"/><polygon fill="#A80036" points="104,262.7188,94,266.7188,104,270.7188,100,266.7188" style="stroke: #A80036; stroke-width: 1.0;"/><line style="stroke: #A80036; stroke-width: 1.0; stroke-dasharray: 2.0,2.0;" x1="98" x2="300.5" y1="266.7188" y2="266.7188"/><text fill="#000000" font-family="sans-serif" font-size="13" lengthAdjust="spacingAndGlyphs" textLength="34" x="110" y="261.8623">OI list</text><polygon fill="#A80036" points="517,293.0703,527,297.0703,517,301.0703,521,297.0703" style="stroke: #A80036; stroke-width: 1.0;"/><line style="stroke: #A80036; stroke-width: 1.0;" x1="93" x2="523" y1="297.0703" y2="297.0703"/><text fill="#000000" font-family="sans-serif" font-size="13" lengthAdjust="spacingAndGlyphs" textLength="74" x="100" y="292.2139">userLocation</text><path d="M473.5,312.0703 L546.5,312.0703 L546.5,320.0703 L536.5,330.0703 L473.5,330.0703 L473.5,312.0703 " fill="#EEEEEE" style="stroke: #000000; stroke-width: 1.0;"/><rect fill="none" height="62.7031" style="stroke: #000000; stroke-width: 2.0;" width="228.5" x="473.5" y="312.0703"/><text fill="#000000" font-family="sans-serif" font-size="13" font-weight="bold" lengthAdjust="spacingAndGlyphs" textLength="28" x="488.5" y="326.5654">loop</text><text fill="#000000" font-family="sans-serif" font-size="11" font-weight="bold" lengthAdjust="spacingAndGlyphs" textLength="106" x="561.5" y="325.4893">[for all Information]</text><polygon fill="#A80036" points="642,348.7734,652,352.7734,642,356.7734,646,352.7734" style="stroke: #A80036; stroke-width: 1.0;"/><line style="stroke: #A80036; stroke-width: 1.0;" x1="529" x2="648" y1="352.7734" y2="352.7734"/><text fill="#000000" font-family="sans-serif" font-size="13" lengthAdjust="spacingAndGlyphs" textLength="101" x="536" y="347.917">check within 5km</text><polygon fill="#A80036" points="540,362.7734,530,366.7734,540,370.7734,536,366.7734" style="stroke: #A80036; stroke-width: 1.0;"/><line style="stroke: #A80036; stroke-width: 1.0; stroke-dasharray: 2.0,2.0;" x1="534" x2="653" y1="366.7734" y2="366.7734"/><polygon fill="#A80036" points="104,400.125,94,404.125,104,408.125,100,404.125" style="stroke: #A80036; stroke-width: 1.0;"/><line style="stroke: #A80036; stroke-width: 1.0; stroke-dasharray: 2.0,2.0;" x1="98" x2="528" y1="404.125" y2="404.125"/><text fill="#000000" font-family="sans-serif" font-size="13" lengthAdjust="spacingAndGlyphs" textLength="41" x="110" y="399.2686">Info list</text><polygon fill="#A80036" points="14,430.4766,4,434.4766,14,438.4766,10,434.4766" style="stroke: #A80036; stroke-width: 1.0;"/><line style="stroke: #A80036; stroke-width: 1.0; stroke-dasharray: 2.0,2.0;" x1="8" x2="92" y1="434.4766" y2="434.4766"/><text fill="#000000" font-family="sans-serif" font-size="13" lengthAdjust="spacingAndGlyphs" textLength="66" x="20" y="429.6201">OI+Info List</text><!--
@startuml Sequence Diagram
control GetNearbyInfo
control GetLocation
entity OICollection
entity ObjectInterest
entity InfoCollection
entity Information

-> GetNearbyInfo
GetNearbyInfo -> GetLocation: request location
GetLocation - -> GetNearbyInfo: userLocation
GetNearbyInfo -> OICollection: userLocation
loop for all OI
	OICollection -> ObjectInterest: check within 5km
	ObjectInterest - -> OICollection
end
OICollection - -> GetNearbyInfo: OI list
GetNearbyInfo -> InfoCollection: userLocation
loop for all Information
	InfoCollection -> Information: check within 5km
	Information - -> InfoCollection
end
InfoCollection - -> GetNearbyInfo: Info list
<- - GetNearbyInfo : OI+Info List
@enduml

PlantUML version 1.2019.09(Tue Aug 27 00:19:51 SGT 2019)
(GPL source distribution)
Java Runtime: Java(TM) SE Runtime Environment
JVM: Java HotSpot(TM) 64-Bit Server VM
Java Version: 12.0.2+10
Operating System: Windows 10
OS Version: 10.0
Default Encoding: Cp1252
Language: en
Country: SG
--></g></svg>